<?xml version="1.0" encoding="utf-8"?>
<!-- Generator: Adobe Illustrator 26.3.1, SVG Export Plug-In . SVG Version: 6.00 Build 0)  -->
<svg version="1.1" id="Layer_1" xmlns="http://www.w3.org/2000/svg" xmlns:xlink="http://www.w3.org/1999/xlink" x="0px" y="0px"
	 viewBox="0 0 1500 500" style="enable-background:new 0 0 1500 500;" xml:space="preserve">
<style type="text/css">
	.st0{fill:#192426;}
	.st1{fill:#FC5890;}
	.st2{fill:#E7DFDE;}
	.st3{fill:#A6B3CE;}
	.st4{fill:#616E8B;}
</style>
<g>
	<rect y="-6.3" class="st0" width="1500" height="512.6"/>
</g>
<image style="overflow:visible;" width="1200" height="409" xlink:href="C9D4D333.jpg"  transform="matrix(1.2556 0 0 1.2556 -246.4653 -943.5594)">
</image>
<g>
	<g>
		<g>
			<g>
				<g>
					<g>
						<path class="st1" d="M1306.6,219.7c-19.5-51.7-82.9-28.5-88.8-2.7c-8.1-27.5-69.9-48-88.8,2.7c-21,56.5,81.4,107.2,88.8,115.5
							C1225.2,328.6,1327.6,275.3,1306.6,219.7z"/>
					</g>
				</g>
			</g>
		</g>
		<g>
			<g>
				<path class="st2" d="M1357.8,254.2c-0.6,0.3-0.9,0.6-1.2,0.8c-9.4,4.8-14.7,12.9-16.7,23.4c-0.8,4.3-1.1,8.8-1.2,13.3
					c-0.2,7.1,0,14.2-0.1,21.3c0,8.4-3.4,14.8-10.7,18.8c-3.4,1.9-7,2.9-10.7,3.5c-1.3,0.2-2.6,0.4-3.9,0.5
					c-0.9,0.1-1.2,0.4-1.2,1.4c0,7.3,0,14.5,0,21.8c0,0.8,0.2,1.3,1.1,1.3c9.5-0.3,18.8-1.1,27.8-4.5c13.3-5.2,21-15.1,23.1-29.7
					c0.5-3.6,0.6-7.3,0.7-11c0.1-7.7,0-15.3,0-23c0-4.3,0.4-8.5,2.3-12.4c3-6.3,8.1-10,14.4-11.7c2.4-0.7,4.9-0.9,7.3-1.2
					c0.8-0.1,1.2-0.3,1.2-1.2c0-7.4,0-14.8,0-22.2c0-1.2-0.6-1.2-1.4-1.2c-5.6-0.3-10.8-1.8-15.4-5.4c-5.2-4.1-8-9.6-8.2-16.4
					c-0.3-10.7,0-21.4-0.4-32.1c-0.3-9.2-2.7-17.7-8.7-24.8c-4.8-5.7-10.9-9.2-17.8-11.4c-6.7-2.2-13.7-3-20.7-3.3
					c-1.4-0.1-2.8-0.1-4.2-0.2c-0.9-0.1-1.3,0.3-1.3,1.2c0,7.3,0,14.5,0,21.8c0,1.1,0.5,1.3,1.4,1.4c4,0.3,7.9,1,11.7,2.6
					c5.3,2.2,9.6,5.6,11.9,11.2c1.2,3,1.6,6.1,1.6,9.3c0,8.4-0.1,16.9,0.1,25.3c0.2,7.7,1.9,15.1,6.1,21.6c3,4.6,6.9,8.1,11.7,10.6
					C1356.8,253.6,1357.2,253.8,1357.8,254.2z"/>
			</g>
			<g>
				<path class="st2" d="M1078.5,254.2c0.6,0.3,0.9,0.6,1.2,0.8c9.4,4.8,14.7,12.9,16.7,23.4c0.8,4.3,1.1,8.8,1.2,13.3
					c0.2,7.1,0,14.2,0.1,21.3c0,8.4,3.4,14.8,10.7,18.8c3.4,1.9,7,2.9,10.7,3.5c1.3,0.2,2.6,0.4,3.9,0.5c0.9,0.1,1.2,0.4,1.2,1.4
					c0,7.3,0,14.5,0,21.8c0,0.8-0.2,1.3-1.1,1.3c-9.5-0.3-18.8-1.1-27.8-4.5c-13.3-5.2-21-15.1-23.1-29.7c-0.5-3.6-0.6-7.3-0.7-11
					c-0.1-7.7,0-15.3,0-23c0-4.3-0.4-8.5-2.3-12.4c-3-6.3-8.1-10-14.4-11.7c-2.4-0.7-4.9-0.9-7.3-1.2c-0.8-0.1-1.2-0.3-1.2-1.2
					c0-7.4,0-14.8,0-22.2c0-1.2,0.6-1.2,1.4-1.2c5.6-0.3,10.8-1.8,15.4-5.4c5.2-4.1,8-9.6,8.2-16.4c0.3-10.7,0-21.4,0.4-32.1
					c0.3-9.2,2.7-17.7,8.7-24.8c4.8-5.7,10.9-9.2,17.8-11.4c6.7-2.2,13.7-3,20.7-3.3c1.4-0.1,2.8-0.1,4.2-0.2
					c0.9-0.1,1.3,0.3,1.3,1.2c0,7.3,0,14.5,0,21.8c0,1.1-0.5,1.3-1.4,1.4c-4,0.3-7.9,1-11.7,2.6c-5.3,2.2-9.6,5.6-11.9,11.2
					c-1.2,3-1.6,6.1-1.6,9.3c0,8.4,0.1,16.9-0.1,25.3c-0.2,7.7-1.9,15.1-6.1,21.6c-3,4.6-6.9,8.1-11.7,10.6
					C1079.4,253.6,1079,253.8,1078.5,254.2z"/>
			</g>
		</g>
	</g>
	<g>
		<g>
			<path class="st2" d="M1051.2,409.5c-2.2,0-4.1-0.5-5.9-1.5c-1.7-1-3.1-2.4-4.1-4.2c-1-1.8-1.5-3.7-1.5-5.9s0.5-4.2,1.4-5.9
				c0.9-1.7,2.2-3.1,3.8-4.1c1.6-1,3.4-1.5,5.5-1.5c1.6,0,3.2,0.3,4.6,1c1.4,0.7,2.6,1.6,3.5,2.8v-11.3c0-0.6,0.2-1.2,0.6-1.5
				c0.4-0.4,0.9-0.6,1.5-0.6c0.6,0,1.2,0.2,1.5,0.6s0.6,0.9,0.6,1.5v19.1c0,2.2-0.5,4.2-1.5,5.9c-1,1.8-2.4,3.1-4.1,4.2
				C1055.3,409,1053.3,409.5,1051.2,409.5z M1051.2,405.8c1.4,0,2.7-0.3,3.8-1s2-1.6,2.6-2.8c0.6-1.2,1-2.5,1-4c0-1.5-0.3-2.8-1-4
				c-0.6-1.2-1.5-2.1-2.6-2.8s-2.4-1-3.8-1c-1.4,0-2.7,0.3-3.8,1c-1.1,0.7-2,1.6-2.7,2.8c-0.7,1.2-1,2.5-1,4c0,1.5,0.3,2.8,1,4
				c0.7,1.2,1.5,2.1,2.7,2.8C1048.5,405.4,1049.8,405.8,1051.2,405.8z"/>
			<path class="st2" d="M1080.9,409.5c-2.3,0-4.4-0.5-6.2-1.5s-3.2-2.4-4.2-4.1c-1-1.7-1.5-3.7-1.5-6c0-2.3,0.5-4.3,1.4-6
				s2.3-3.1,4-4.1c1.7-1,3.7-1.5,5.9-1.5c2.2,0,4,0.5,5.6,1.4c1.6,1,2.8,2.3,3.6,4c0.8,1.7,1.2,3.6,1.2,5.8c0,0.5-0.2,1-0.5,1.3
				c-0.4,0.3-0.8,0.5-1.4,0.5h-16.9v-3.3h16.7l-1.7,1.2c0-1.4-0.3-2.6-0.8-3.7c-0.5-1.1-1.3-2-2.3-2.6c-1-0.6-2.2-1-3.6-1
				c-1.6,0-2.9,0.3-4.1,1c-1.1,0.7-2,1.7-2.6,2.9s-0.9,2.6-0.9,4.1c0,1.5,0.3,2.9,1,4.1s1.7,2.1,2.9,2.8c1.2,0.7,2.6,1,4.2,1
				c0.9,0,1.8-0.2,2.7-0.5c0.9-0.3,1.6-0.7,2.2-1.1c0.4-0.3,0.9-0.5,1.4-0.5c0.5,0,0.9,0.1,1.3,0.4c0.5,0.4,0.7,0.9,0.8,1.4
				s-0.2,0.9-0.7,1.3c-0.9,0.8-2.1,1.4-3.5,1.8C1083.6,409.3,1082.2,409.5,1080.9,409.5z"/>
			<path class="st2" d="M1103.9,409.3c-0.9,0-1.5-0.5-2-1.4l-8.9-18.7c-0.2-0.5-0.2-0.9-0.1-1.4c0.2-0.5,0.5-0.8,1.1-1.1
				c0.5-0.3,1-0.3,1.4-0.1c0.5,0.2,0.9,0.5,1.1,1l8.3,17.9h-2l8.2-17.9c0.3-0.5,0.6-0.8,1.2-1c0.5-0.2,1-0.1,1.6,0.1
				c0.5,0.2,0.8,0.6,1,1c0.2,0.5,0.1,0.9-0.1,1.4l-8.9,18.7C1105.4,408.9,1104.8,409.3,1103.9,409.3z"/>
			<path class="st2" d="M1129.8,409.5c-2.3,0-4.4-0.5-6.2-1.5s-3.2-2.4-4.2-4.1c-1-1.7-1.5-3.7-1.5-6c0-2.3,0.5-4.3,1.4-6
				s2.3-3.1,4-4.1c1.7-1,3.7-1.5,5.9-1.5c2.2,0,4,0.5,5.6,1.4c1.6,1,2.8,2.3,3.6,4c0.8,1.7,1.2,3.6,1.2,5.8c0,0.5-0.2,1-0.5,1.3
				c-0.4,0.3-0.8,0.5-1.4,0.5h-16.9v-3.3h16.7l-1.7,1.2c0-1.4-0.3-2.6-0.8-3.7c-0.5-1.1-1.3-2-2.3-2.6c-1-0.6-2.2-1-3.6-1
				c-1.6,0-2.9,0.3-4.1,1c-1.1,0.7-2,1.7-2.6,2.9s-0.9,2.6-0.9,4.1c0,1.5,0.3,2.9,1,4.1s1.7,2.1,2.9,2.8c1.2,0.7,2.6,1,4.2,1
				c0.9,0,1.8-0.2,2.7-0.5c0.9-0.3,1.6-0.7,2.2-1.1c0.4-0.3,0.9-0.5,1.4-0.5c0.5,0,0.9,0.1,1.3,0.4c0.5,0.4,0.7,0.9,0.8,1.4
				s-0.2,0.9-0.7,1.3c-0.9,0.8-2.1,1.4-3.5,1.8C1132.5,409.3,1131.1,409.5,1129.8,409.5z"/>
			<path class="st2" d="M1150.5,409.4c-1.2,0-2.3-0.3-3.3-1c-0.9-0.7-1.7-1.6-2.2-2.7c-0.5-1.2-0.8-2.5-0.8-4v-22.8
				c0-0.6,0.2-1.1,0.6-1.5s0.9-0.6,1.5-0.6s1.1,0.2,1.5,0.6c0.4,0.4,0.6,0.9,0.6,1.5v22.8c0,1,0.2,1.9,0.6,2.6c0.4,0.7,0.9,1,1.5,1
				h1c0.6,0,1,0.2,1.4,0.6s0.5,0.9,0.5,1.5c0,0.6-0.3,1.1-0.8,1.5C1152.1,409.2,1151.4,409.4,1150.5,409.4L1150.5,409.4z"/>
			<path class="st2" d="M1168,409.5c-2.3,0-4.3-0.5-6-1.5s-3.1-2.4-4.1-4.1c-1-1.7-1.5-3.7-1.5-6c0-2.3,0.5-4.3,1.5-6
				c1-1.7,2.3-3.1,4.1-4.1s3.7-1.5,6-1.5c2.2,0,4.2,0.5,5.9,1.5c1.7,1,3.1,2.4,4.1,4.1s1.5,3.8,1.5,6c0,2.3-0.5,4.3-1.5,6
				c-1,1.7-2.3,3.1-4.1,4.1C1172.2,409,1170.2,409.5,1168,409.5z M1168,405.8c1.4,0,2.7-0.3,3.8-1c1.1-0.7,2-1.6,2.6-2.8
				c0.6-1.2,0.9-2.5,0.9-4.1c0-1.5-0.3-2.9-0.9-4.1c-0.6-1.2-1.5-2.1-2.6-2.8c-1.1-0.7-2.4-1-3.8-1c-1.5,0-2.7,0.3-3.8,1
				c-1.1,0.7-2,1.6-2.6,2.8s-1,2.5-1,4.1c0,1.5,0.3,2.9,1,4.1c0.6,1.2,1.5,2.1,2.6,2.8C1165.3,405.4,1166.5,405.8,1168,405.8z"/>
			<path class="st2" d="M1188,419.2c-0.6,0-1.1-0.2-1.5-0.6c-0.4-0.4-0.6-0.9-0.6-1.5v-19.1c0-2.2,0.5-4.2,1.5-5.9s2.4-3.1,4.1-4.2
				c1.7-1,3.7-1.5,5.9-1.5c2.2,0,4.2,0.5,5.9,1.5c1.7,1,3.1,2.4,4.1,4.2c1,1.8,1.5,3.7,1.5,5.9s-0.5,4.2-1.4,5.9
				c-0.9,1.7-2.2,3.1-3.8,4.1c-1.6,1-3.4,1.5-5.5,1.5c-1.6,0-3.2-0.3-4.5-1c-1.4-0.7-2.6-1.6-3.5-2.8V417c0,0.6-0.2,1.1-0.6,1.5
				C1189.1,418.9,1188.6,419.2,1188,419.2z M1197.4,405.8c1.4,0,2.7-0.3,3.8-1c1.1-0.7,2-1.6,2.7-2.8c0.7-1.2,1-2.5,1-4
				c0-1.5-0.3-2.9-1-4c-0.7-1.2-1.5-2.1-2.7-2.8c-1.1-0.7-2.4-1-3.8-1c-1.4,0-2.7,0.3-3.8,1c-1.1,0.7-2,1.6-2.7,2.8
				c-0.6,1.2-1,2.5-1,4c0,1.5,0.3,2.8,1,4c0.6,1.2,1.5,2.1,2.7,2.8C1194.7,405.4,1196,405.8,1197.4,405.8z"/>
			<path class="st2" d="M1226,409.5c-2.3,0-4.4-0.5-6.2-1.5s-3.2-2.4-4.2-4.1c-1-1.7-1.5-3.7-1.5-6c0-2.3,0.5-4.3,1.4-6
				s2.3-3.1,4-4.1c1.7-1,3.7-1.5,5.9-1.5c2.2,0,4,0.5,5.6,1.4c1.6,1,2.8,2.3,3.6,4c0.8,1.7,1.2,3.6,1.2,5.8c0,0.5-0.2,1-0.5,1.3
				c-0.4,0.3-0.8,0.5-1.4,0.5H1217v-3.3h16.7l-1.7,1.2c0-1.4-0.3-2.6-0.8-3.7c-0.5-1.1-1.3-2-2.3-2.6c-1-0.6-2.2-1-3.6-1
				c-1.6,0-2.9,0.3-4.1,1c-1.1,0.7-2,1.7-2.6,2.9s-0.9,2.6-0.9,4.1c0,1.5,0.3,2.9,1,4.1s1.7,2.1,2.9,2.8c1.2,0.7,2.6,1,4.2,1
				c0.9,0,1.8-0.2,2.7-0.5c0.9-0.3,1.6-0.7,2.2-1.1c0.4-0.3,0.9-0.5,1.4-0.5c0.5,0,0.9,0.1,1.3,0.4c0.5,0.4,0.7,0.9,0.8,1.4
				s-0.2,0.9-0.7,1.3c-0.9,0.8-2.1,1.4-3.5,1.8C1228.6,409.3,1227.3,409.5,1226,409.5z"/>
			<path class="st2" d="M1243.3,409.4c-0.7,0-1.2-0.2-1.5-0.5s-0.5-0.9-0.5-1.6v-18.7c0-0.7,0.2-1.2,0.5-1.5
				c0.4-0.4,0.9-0.5,1.5-0.5c0.7,0,1.2,0.2,1.6,0.5c0.3,0.3,0.5,0.9,0.5,1.6v18.7c0,0.7-0.2,1.2-0.5,1.5
				C1244.5,409.2,1244,409.4,1243.3,409.4z M1243.3,395.1c0-1.7,0.4-3.2,1.2-4.5c0.8-1.3,1.9-2.4,3.3-3.2c1.4-0.8,2.9-1.2,4.6-1.2
				c1.7,0,2.9,0.3,3.7,0.8c0.8,0.5,1.1,1.2,0.9,1.9c-0.1,0.4-0.2,0.7-0.5,0.9c-0.2,0.2-0.5,0.3-0.8,0.4c-0.3,0.1-0.6,0-1,0
				c-1.8-0.4-3.4-0.4-4.8-0.1c-1.4,0.3-2.5,0.9-3.4,1.7c-0.8,0.8-1.2,1.9-1.2,3.2H1243.3z"/>
			<path class="st2" d="M1262.8,410c-0.8,0-1.5-0.3-2-0.9c-0.6-0.6-0.9-1.2-0.9-2c0-0.8,0.3-1.5,0.9-2.1c0.6-0.6,1.2-0.9,2-0.9
				c0.8,0,1.5,0.3,2,0.9c0.6,0.6,0.8,1.3,0.8,2.1c0,0.8-0.3,1.5-0.8,2C1264.3,409.7,1263.6,410,1262.8,410z"/>
			<path class="st1" d="M1273.7,401c-0.6,0-1.1-0.2-1.5-0.6c-0.4-0.4-0.6-0.9-0.6-1.5v-20.1c0-0.6,0.2-1.2,0.6-1.5s0.9-0.6,1.5-0.6
				c0.6,0,1.2,0.2,1.5,0.6s0.6,0.9,0.6,1.5v20.1c0,0.6-0.2,1.1-0.6,1.5C1274.8,400.8,1274.3,401,1273.7,401z M1273.7,409.4
				c-0.6,0-1.1-0.2-1.5-0.6s-0.6-0.9-0.6-1.5v-18.7c0-0.6,0.2-1.2,0.6-1.5s0.9-0.6,1.5-0.6c0.6,0,1.2,0.2,1.5,0.6s0.6,0.9,0.6,1.5
				v18.7c0,0.6-0.2,1.1-0.6,1.5S1274.3,409.4,1273.7,409.4z M1290.8,409.4c-0.6,0-1.1-0.2-1.5-0.6s-0.6-0.9-0.6-1.5V397
				c0-1.6-0.3-2.9-0.9-3.9c-0.6-1-1.4-1.7-2.4-2.2s-2.1-0.7-3.4-0.7c-1.2,0-2.2,0.2-3.2,0.7c-0.9,0.5-1.7,1.1-2.3,1.9
				s-0.8,1.7-0.8,2.7h-2.6c0-1.8,0.4-3.3,1.3-4.7s2-2.5,3.5-3.3c1.5-0.8,3.1-1.2,5-1.2c1.9,0,3.6,0.4,5.2,1.2s2.7,2,3.6,3.6
				c0.9,1.6,1.3,3.5,1.3,5.9v10.3c0,0.6-0.2,1.1-0.6,1.5C1292,409.2,1291.5,409.4,1290.8,409.4z"/>
			<path class="st1" d="M1310.8,409.5c-2.3,0-4.4-0.5-6.2-1.5s-3.2-2.4-4.2-4.1c-1-1.7-1.5-3.7-1.5-6c0-2.3,0.5-4.3,1.4-6
				s2.3-3.1,4-4.1c1.7-1,3.7-1.5,5.9-1.5c2.2,0,4,0.5,5.6,1.4c1.6,1,2.8,2.3,3.6,4c0.8,1.7,1.2,3.6,1.2,5.8c0,0.5-0.2,1-0.5,1.3
				c-0.4,0.3-0.8,0.5-1.4,0.5h-16.9v-3.3h16.7l-1.7,1.2c0-1.4-0.3-2.6-0.8-3.7c-0.5-1.1-1.3-2-2.3-2.6c-1-0.6-2.2-1-3.6-1
				c-1.6,0-2.9,0.3-4.1,1c-1.1,0.7-2,1.7-2.6,2.9s-0.9,2.6-0.9,4.1c0,1.5,0.3,2.9,1,4.1s1.7,2.1,2.9,2.8c1.2,0.7,2.6,1,4.2,1
				c0.9,0,1.8-0.2,2.7-0.5c0.9-0.3,1.6-0.7,2.2-1.1c0.4-0.3,0.9-0.5,1.4-0.5c0.5,0,0.9,0.1,1.3,0.4c0.5,0.4,0.7,0.9,0.8,1.4
				s-0.2,0.9-0.7,1.3c-0.9,0.8-2.1,1.4-3.5,1.8C1313.5,409.3,1312.1,409.5,1310.8,409.5z"/>
			<path class="st1" d="M1335.6,409.5c-2,0-3.9-0.5-5.5-1.5c-1.6-1-2.9-2.4-3.8-4.1c-0.9-1.7-1.4-3.7-1.4-5.9s0.5-4.2,1.5-5.9
				c1-1.8,2.4-3.1,4.1-4.2c1.7-1,3.7-1.5,5.9-1.5c2.2,0,4.1,0.5,5.9,1.5c1.7,1,3.1,2.4,4.1,4.2c1,1.8,1.5,3.7,1.5,5.9h-1.6
				c0,2.2-0.5,4.2-1.4,5.9c-0.9,1.7-2.2,3.1-3.8,4.1C1339.5,409,1337.6,409.5,1335.6,409.5z M1336.4,405.8c1.4,0,2.7-0.3,3.8-1
				s2-1.6,2.6-2.8c0.6-1.2,1-2.5,1-4c0-1.5-0.3-2.9-1-4c-0.6-1.2-1.5-2.1-2.6-2.8s-2.4-1-3.8-1c-1.4,0-2.7,0.3-3.8,1
				c-1.1,0.7-2,1.6-2.7,2.8c-0.7,1.2-1,2.5-1,4c0,1.5,0.3,2.8,1,4c0.7,1.2,1.5,2.1,2.7,2.8C1333.8,405.4,1335.1,405.8,1336.4,405.8z
				 M1345.8,409.4c-0.6,0-1.1-0.2-1.5-0.6c-0.4-0.4-0.6-0.9-0.6-1.5v-6.4l0.8-4.4l3.5,1.5v9.3c0,0.6-0.2,1.1-0.6,1.5
				S1346.4,409.4,1345.8,409.4z"/>
			<path class="st1" d="M1359.7,409.4c-1.2,0-2.3-0.3-3.3-1c-0.9-0.7-1.7-1.6-2.2-2.7c-0.5-1.2-0.8-2.5-0.8-4v-22.8
				c0-0.6,0.2-1.1,0.6-1.5s0.9-0.6,1.5-0.6s1.1,0.2,1.5,0.6c0.4,0.4,0.6,0.9,0.6,1.5v22.8c0,1,0.2,1.9,0.6,2.6c0.4,0.7,0.9,1,1.5,1
				h1c0.6,0,1,0.2,1.4,0.6s0.5,0.9,0.5,1.5c0,0.6-0.3,1.1-0.8,1.5C1361.3,409.2,1360.7,409.4,1359.7,409.4L1359.7,409.4z"/>
			<path class="st1" d="M1365.9,390.9c-0.6,0-1.1-0.2-1.4-0.5c-0.4-0.3-0.5-0.8-0.5-1.3c0-0.6,0.2-1,0.5-1.3
				c0.4-0.3,0.8-0.5,1.4-0.5h9.7c0.6,0,1.1,0.2,1.4,0.5c0.4,0.3,0.5,0.8,0.5,1.3c0,0.5-0.2,0.9-0.5,1.3c-0.4,0.3-0.8,0.5-1.4,0.5
				H1365.9z M1375.2,409.4c-1.4,0-2.7-0.4-3.8-1.1c-1.1-0.7-2-1.7-2.6-2.9c-0.6-1.2-1-2.6-1-4.1v-20c0-0.6,0.2-1.1,0.6-1.5
				c0.4-0.4,0.9-0.6,1.5-0.6s1.1,0.2,1.5,0.6c0.4,0.4,0.6,0.9,0.6,1.5v20c0,1.1,0.3,2,0.9,2.8c0.6,0.8,1.4,1.1,2.3,1.1h1.4
				c0.5,0,0.9,0.2,1.3,0.6c0.3,0.4,0.5,0.9,0.5,1.5c0,0.6-0.2,1.1-0.7,1.5c-0.5,0.4-1.1,0.6-1.8,0.6H1375.2z"/>
			<path class="st1" d="M1385.8,401c-0.6,0-1.1-0.2-1.5-0.6c-0.4-0.4-0.6-0.9-0.6-1.5v-20.1c0-0.6,0.2-1.2,0.6-1.5s0.9-0.6,1.5-0.6
				c0.6,0,1.2,0.2,1.5,0.6s0.6,0.9,0.6,1.5v20.1c0,0.6-0.2,1.1-0.6,1.5C1386.9,400.8,1386.4,401,1385.8,401z M1385.8,409.4
				c-0.6,0-1.1-0.2-1.5-0.6s-0.6-0.9-0.6-1.5v-18.7c0-0.6,0.2-1.2,0.6-1.5s0.9-0.6,1.5-0.6c0.6,0,1.2,0.2,1.5,0.6s0.6,0.9,0.6,1.5
				v18.7c0,0.6-0.2,1.1-0.6,1.5S1386.4,409.4,1385.8,409.4z M1403,409.4c-0.6,0-1.1-0.2-1.5-0.6s-0.6-0.9-0.6-1.5V397
				c0-1.6-0.3-2.9-0.9-3.9c-0.6-1-1.4-1.7-2.4-2.2s-2.1-0.7-3.4-0.7c-1.2,0-2.2,0.2-3.2,0.7c-0.9,0.5-1.7,1.1-2.3,1.9
				s-0.8,1.7-0.8,2.7h-2.6c0-1.8,0.4-3.3,1.3-4.7s2-2.5,3.5-3.3c1.5-0.8,3.1-1.2,5-1.2c1.9,0,3.6,0.4,5.2,1.2s2.7,2,3.6,3.6
				c0.9,1.6,1.3,3.5,1.3,5.9v10.3c0,0.6-0.2,1.1-0.6,1.5C1404.1,409.2,1403.6,409.4,1403,409.4z"/>
		</g>
	</g>
	<g>
		<g>
			<path class="st1" d="M780.4,232.8c-1,11.4-1.4,22.8-3.2,34c-5.9,35.4-37.7,58.9-72.4,55c-29-3.3-50.4-22.1-57.7-51.5
				c-2.2-8.9-2.3-18.4-2.7-27.7c-0.4-11-0.8-22.1,0-33.1c2.3-30.2,19.6-57.5,51.8-64.7c29.9-6.7,59.6,5.6,74.2,33.5
				C779.6,195.8,780,214,780.4,232.8z M720.8,232.2c0-6,0.2-11.9-0.1-17.8c-0.4-8.2-3.2-11.8-8.5-12c-5.6-0.2-8.8,3.2-9.1,11.4
				c-0.4,12.7-0.3,25.5,0,38.2c0.2,6.3,4.1,10.8,8.5,11.1c4.7,0.2,8.8-4.7,9.2-11.7C721,244.9,720.8,238.5,720.8,232.2z
				 M690.1,232.5C690.1,232.5,690.1,232.5,690.1,232.5c0-4.2,0.2-8.4-0.1-12.6c-0.3-4.3-2.5-7.1-7.1-7.3c-5.2-0.1-7.8,2.9-7.9,7.8
				c-0.2,8.4-0.2,16.8,0.1,25.2c0.1,4.3,2.5,7.1,7.1,7.3c5.2,0.1,7.7-2.9,7.9-7.8C690.2,240.9,690.1,236.7,690.1,232.5z
				 M748.7,233.1c0,0-0.1,0-0.1,0c0-4.6,0.3-9.3-0.1-13.9c-0.4-4.4-3.4-7.3-7.7-6.3c-2.6,0.6-6.5,3.6-6.7,5.8
				c-0.8,9.2-0.6,18.5-0.3,27.7c0.1,4.4,3.2,6.7,7.7,6.5c4.6-0.2,6.9-3,7.1-7.3C748.9,241.5,748.7,237.3,748.7,233.1z"/>
		</g>
	</g>
	<g>
		<path class="st2" d="M706.9,360.3c-21.7-2.2-45.4-8.8-64.4-28.5c-12.3-12.7-23.1-25.9-28.5-42.9c-0.8-2.4-2-4.8-2.2-7.2
			c-0.4-4.8,2.4-8.2,6.7-9.7c4.4-1.5,7.5,1.4,9.3,4.9c2.8,5.2,4.8,10.8,7.3,16.2c14.3,30.4,39.3,47,71.9,49
			c34.2,2.1,61.5-12.8,79.2-43c3.6-6.2,6.1-13,9.2-19.6c3.1-6.7,7-9.1,11.4-7.2c5.1,2.2,7.1,7.6,4.8,14
			C797,328.9,758,360.7,706.9,360.3z"/>
	</g>
	<g>
		<g>
			<path class="st2" d="M561.9,389.5c-0.6,0-1.1-0.2-1.4-0.5c-0.4-0.3-0.5-0.8-0.5-1.3c0-0.6,0.2-1,0.5-1.3c0.4-0.3,0.8-0.5,1.4-0.5
				h9.7c0.6,0,1.1,0.2,1.4,0.5c0.4,0.3,0.5,0.8,0.5,1.3c0,0.5-0.2,0.9-0.5,1.3c-0.4,0.3-0.8,0.5-1.4,0.5H561.9z M571.2,408
				c-1.4,0-2.6-0.4-3.8-1.1c-1.1-0.7-2-1.7-2.6-2.9c-0.6-1.2-1-2.6-1-4.1v-20c0-0.6,0.2-1.1,0.6-1.5c0.4-0.4,0.9-0.6,1.5-0.6
				c0.6,0,1.1,0.2,1.5,0.6c0.4,0.4,0.6,0.9,0.6,1.5v20c0,1.1,0.3,2,0.9,2.8c0.6,0.8,1.4,1.1,2.3,1.1h1.4c0.5,0,0.9,0.2,1.3,0.6
				c0.3,0.4,0.5,0.9,0.5,1.5c0,0.6-0.2,1.1-0.7,1.5c-0.5,0.4-1.1,0.6-1.8,0.6H571.2z"/>
			<path class="st2" d="M584.9,408c-0.4,0-0.9-0.1-1.2-0.4c-0.4-0.3-0.6-0.6-0.8-1l-6.2-18.6c-0.2-0.9-0.2-1.6,0-2.1
				c0.2-0.5,0.8-0.8,1.6-0.8c0.5,0,1,0.1,1.3,0.4c0.3,0.3,0.6,0.8,0.9,1.5l5.3,16.5h-1.5l5-16.8c0.1-0.5,0.4-0.9,0.7-1.2
				c0.3-0.3,0.8-0.4,1.4-0.4c0.6,0,1,0.1,1.4,0.4c0.3,0.3,0.6,0.7,0.7,1.2l4.1,15.8h-0.6l4.9-15.5c0.4-1.3,1.1-1.9,2.2-1.9
				c0.8,0,1.3,0.3,1.6,0.8c0.3,0.5,0.3,1.2,0,2.1l-6.2,18.6c-0.1,0.4-0.3,0.7-0.7,1c-0.4,0.3-0.8,0.4-1.3,0.4
				c-0.4,0-0.9-0.1-1.3-0.4c-0.4-0.3-0.6-0.6-0.8-1l-4.3-15.9h0.4l-4.5,15.9c-0.1,0.4-0.4,0.7-0.7,1
				C585.8,407.8,585.3,408,584.9,408z"/>
			<path class="st2" d="M612.6,381.4c-0.8,0-1.4-0.3-1.9-0.8s-0.8-1.2-0.8-1.9c0-0.8,0.3-1.4,0.8-1.9c0.5-0.5,1.2-0.8,1.9-0.8
				s1.4,0.3,1.9,0.8c0.5,0.5,0.8,1.2,0.8,1.9c0,0.8-0.3,1.4-0.8,1.9C614,381.1,613.4,381.4,612.6,381.4z M612.6,408
				c-0.6,0-1.1-0.2-1.5-0.6c-0.4-0.4-0.6-0.9-0.6-1.5v-18.6c0-0.6,0.2-1.2,0.6-1.5c0.4-0.4,0.9-0.6,1.5-0.6c0.6,0,1.2,0.2,1.5,0.6
				c0.4,0.4,0.6,0.9,0.6,1.5v18.6c0,0.6-0.2,1.1-0.6,1.5C613.8,407.8,613.3,408,612.6,408z"/>
			<path class="st2" d="M621.7,389.5c-0.6,0-1.1-0.2-1.4-0.5c-0.4-0.3-0.5-0.8-0.5-1.3c0-0.6,0.2-1,0.5-1.3c0.4-0.3,0.8-0.5,1.4-0.5
				h9.7c0.6,0,1.1,0.2,1.4,0.5c0.4,0.3,0.5,0.8,0.5,1.3c0,0.5-0.2,0.9-0.5,1.3c-0.4,0.3-0.8,0.5-1.4,0.5H621.7z M631,408
				c-1.4,0-2.6-0.4-3.8-1.1c-1.1-0.7-2-1.7-2.6-2.9c-0.6-1.2-1-2.6-1-4.1v-20c0-0.6,0.2-1.1,0.6-1.5c0.4-0.4,0.9-0.6,1.5-0.6
				c0.6,0,1.1,0.2,1.5,0.6c0.4,0.4,0.6,0.9,0.6,1.5v20c0,1.1,0.3,2,0.9,2.8c0.6,0.8,1.4,1.1,2.3,1.1h1.4c0.5,0,0.9,0.2,1.3,0.6
				c0.3,0.4,0.5,0.9,0.5,1.5c0,0.6-0.2,1.1-0.7,1.5c-0.5,0.4-1.1,0.6-1.8,0.6H631z"/>
			<path class="st2" d="M638.5,389.5c-0.6,0-1.1-0.2-1.4-0.5c-0.4-0.3-0.5-0.8-0.5-1.3c0-0.6,0.2-1,0.5-1.3c0.4-0.3,0.8-0.5,1.4-0.5
				h9.7c0.6,0,1.1,0.2,1.4,0.5c0.4,0.3,0.5,0.8,0.5,1.3c0,0.5-0.2,0.9-0.5,1.3c-0.4,0.3-0.8,0.5-1.4,0.5H638.5z M647.8,408
				c-1.4,0-2.6-0.4-3.8-1.1c-1.1-0.7-2-1.7-2.6-2.9c-0.6-1.2-1-2.6-1-4.1v-20c0-0.6,0.2-1.1,0.6-1.5c0.4-0.4,0.9-0.6,1.5-0.6
				c0.6,0,1.1,0.2,1.5,0.6c0.4,0.4,0.6,0.9,0.6,1.5v20c0,1.1,0.3,2,0.9,2.8c0.6,0.8,1.4,1.1,2.3,1.1h1.4c0.5,0,0.9,0.2,1.3,0.6
				c0.3,0.4,0.5,0.9,0.5,1.5c0,0.6-0.2,1.1-0.7,1.5c-0.5,0.4-1.1,0.6-1.8,0.6H647.8z"/>
			<path class="st2" d="M667,408.1c-2.3,0-4.4-0.5-6.2-1.5s-3.2-2.4-4.2-4.1c-1-1.7-1.5-3.7-1.5-6c0-2.3,0.5-4.3,1.4-6
				c1-1.7,2.3-3.1,4-4.1s3.7-1.5,5.9-1.5c2.2,0,4,0.5,5.6,1.4c1.6,1,2.8,2.3,3.6,4c0.8,1.7,1.2,3.6,1.2,5.8c0,0.5-0.2,1-0.5,1.3
				c-0.4,0.3-0.8,0.5-1.4,0.5H658v-3.3h16.7l-1.7,1.2c0-1.4-0.3-2.6-0.8-3.7c-0.5-1.1-1.3-2-2.3-2.6c-1-0.6-2.2-1-3.6-1
				c-1.6,0-2.9,0.3-4.1,1c-1.1,0.7-2,1.7-2.6,2.9c-0.6,1.2-0.9,2.6-0.9,4.1c0,1.5,0.3,2.9,1,4.1c0.7,1.2,1.7,2.1,2.9,2.8
				c1.2,0.7,2.6,1,4.2,1c0.9,0,1.7-0.2,2.7-0.5c0.9-0.3,1.6-0.7,2.2-1.1c0.4-0.3,0.9-0.5,1.4-0.5c0.5,0,0.9,0.1,1.3,0.4
				c0.5,0.4,0.7,0.9,0.8,1.4c0,0.5-0.2,0.9-0.7,1.3c-0.9,0.8-2.1,1.4-3.5,1.8C669.6,407.9,668.3,408.1,667,408.1z"/>
			<path class="st2" d="M684.3,408c-0.7,0-1.2-0.2-1.5-0.5c-0.4-0.3-0.5-0.9-0.5-1.6v-18.7c0-0.7,0.2-1.2,0.5-1.5
				c0.4-0.4,0.9-0.5,1.5-0.5c0.7,0,1.2,0.2,1.6,0.5c0.3,0.3,0.5,0.9,0.5,1.6v18.7c0,0.7-0.2,1.2-0.5,1.5
				C685.5,407.8,685,408,684.3,408z M684.3,393.7c0-1.7,0.4-3.2,1.2-4.5c0.8-1.3,1.9-2.4,3.3-3.2c1.4-0.8,2.9-1.2,4.6-1.2
				s2.9,0.3,3.7,0.8c0.8,0.5,1.1,1.2,0.9,1.9c-0.1,0.4-0.2,0.7-0.5,0.9c-0.2,0.2-0.5,0.3-0.8,0.4c-0.3,0.1-0.6,0-1,0
				c-1.8-0.4-3.4-0.4-4.8-0.1s-2.5,0.9-3.4,1.7c-0.8,0.8-1.2,1.9-1.2,3.2H684.3z"/>
			<path class="st1" d="M723.1,408.1c-2,0-3.8-0.3-5.4-0.9c-1.7-0.6-2.9-1.4-3.9-2.3c-0.4-0.4-0.6-1-0.5-1.5c0.1-0.6,0.3-1,0.8-1.4
				c0.6-0.4,1.1-0.6,1.7-0.6s1,0.3,1.4,0.7c0.5,0.5,1.2,1,2.3,1.5s2.2,0.7,3.5,0.7c1.6,0,2.9-0.3,3.7-0.8c0.9-0.5,1.3-1.2,1.3-2
				c0-0.8-0.4-1.6-1.2-2.2c-0.8-0.6-2.3-1.1-4.5-1.5c-2.8-0.6-4.9-1.4-6.1-2.5c-1.3-1.1-1.9-2.5-1.9-4.1c0-1.4,0.4-2.6,1.3-3.5
				c0.8-0.9,1.9-1.6,3.2-2.1c1.3-0.5,2.7-0.7,4.1-0.7c1.8,0,3.5,0.3,4.9,0.9c1.4,0.6,2.6,1.4,3.4,2.4c0.4,0.4,0.6,0.9,0.5,1.4
				c0,0.5-0.3,0.9-0.7,1.2c-0.4,0.3-1,0.4-1.6,0.3c-0.6-0.1-1.1-0.4-1.5-0.8c-0.7-0.7-1.5-1.1-2.3-1.4c-0.8-0.3-1.7-0.4-2.8-0.4
				c-1.2,0-2.3,0.2-3.1,0.6c-0.9,0.4-1.3,1-1.3,1.8c0,0.5,0.1,1,0.4,1.4c0.3,0.4,0.8,0.8,1.6,1.1c0.8,0.3,1.9,0.6,3.4,0.9
				c2.1,0.4,3.7,0.9,5,1.6c1.2,0.6,2.1,1.4,2.6,2.2c0.5,0.9,0.8,1.8,0.8,2.9c0,1.3-0.3,2.4-1,3.5c-0.7,1-1.7,1.9-3,2.5
				C726.8,407.8,725.1,408.1,723.1,408.1z"/>
			<path class="st1" d="M739.7,417.8c-0.6,0-1.1-0.2-1.5-0.6c-0.4-0.4-0.6-0.9-0.6-1.5v-19.1c0-2.2,0.5-4.2,1.5-5.9
				c1-1.8,2.4-3.1,4.1-4.2c1.7-1,3.7-1.5,5.9-1.5c2.2,0,4.2,0.5,5.9,1.5c1.7,1,3.1,2.4,4.1,4.2s1.5,3.7,1.5,5.9s-0.5,4.2-1.4,5.9
				c-0.9,1.7-2.2,3.1-3.8,4.1c-1.6,1-3.4,1.5-5.5,1.5c-1.6,0-3.2-0.3-4.5-1s-2.6-1.6-3.5-2.8v11.3c0,0.6-0.2,1.1-0.6,1.5
				C740.8,417.5,740.3,417.8,739.7,417.8z M749,404.4c1.4,0,2.7-0.3,3.8-1c1.1-0.7,2-1.6,2.7-2.8c0.7-1.2,1-2.5,1-4
				c0-1.5-0.3-2.9-1-4c-0.7-1.2-1.5-2.1-2.7-2.8c-1.1-0.7-2.4-1-3.8-1c-1.4,0-2.7,0.3-3.8,1c-1.1,0.7-2,1.6-2.7,2.8
				c-0.6,1.2-1,2.5-1,4c0,1.5,0.3,2.8,1,4c0.6,1.2,1.5,2.1,2.7,2.8C746.4,404,747.6,404.4,749,404.4z"/>
			<path class="st1" d="M776.5,408.1c-2,0-3.9-0.5-5.5-1.5c-1.6-1-2.9-2.4-3.8-4.1c-0.9-1.7-1.4-3.7-1.4-5.9s0.5-4.2,1.5-5.9
				c1-1.8,2.4-3.1,4.1-4.2c1.7-1,3.7-1.5,5.9-1.5c2.2,0,4.1,0.5,5.9,1.5c1.7,1,3.1,2.4,4.1,4.2c1,1.8,1.5,3.7,1.5,5.9h-1.6
				c0,2.2-0.5,4.2-1.4,5.9c-0.9,1.7-2.2,3.1-3.8,4.1C780.3,407.6,778.5,408.1,776.5,408.1z M777.3,404.4c1.4,0,2.7-0.3,3.8-1
				s2-1.6,2.6-2.8c0.6-1.2,1-2.5,1-4c0-1.5-0.3-2.9-1-4c-0.6-1.2-1.5-2.1-2.6-2.8s-2.4-1-3.8-1c-1.4,0-2.7,0.3-3.8,1
				c-1.1,0.7-2,1.6-2.7,2.8c-0.7,1.2-1,2.5-1,4c0,1.5,0.3,2.8,1,4c0.7,1.2,1.5,2.1,2.7,2.8C774.6,404,775.9,404.4,777.3,404.4z
				 M786.7,408c-0.6,0-1.1-0.2-1.5-0.6c-0.4-0.4-0.6-0.9-0.6-1.5v-6.4l0.8-4.4l3.5,1.5v9.3c0,0.6-0.2,1.1-0.6,1.5
				S787.3,408,786.7,408z"/>
			<path class="st1" d="M805.5,408.1c-2.2,0-4.2-0.5-6-1.5c-1.7-1-3.1-2.4-4.1-4.1c-1-1.7-1.5-3.7-1.5-5.9c0-2.3,0.5-4.3,1.5-6
				c1-1.8,2.3-3.1,4-4.1c1.7-1,3.7-1.5,5.9-1.5c1.6,0,3.2,0.3,4.5,0.9c1.4,0.6,2.6,1.6,3.7,2.8c0.4,0.4,0.5,0.9,0.4,1.4
				c-0.1,0.5-0.4,0.9-0.9,1.3c-0.4,0.3-0.8,0.4-1.3,0.3c-0.5-0.1-0.9-0.3-1.3-0.7c-1.4-1.5-3.1-2.2-5.1-2.2c-1.4,0-2.7,0.3-3.8,1
				c-1.1,0.7-1.9,1.6-2.6,2.7c-0.6,1.2-0.9,2.6-0.9,4.1c0,1.5,0.3,2.8,0.9,4c0.6,1.2,1.5,2.1,2.6,2.8s2.4,1,3.9,1
				c1,0,1.8-0.1,2.6-0.4c0.7-0.2,1.4-0.6,2-1.1c0.4-0.4,0.9-0.6,1.4-0.6c0.5,0,0.9,0.1,1.3,0.4c0.5,0.4,0.7,0.8,0.8,1.3
				c0.1,0.5-0.1,0.9-0.5,1.3C811.1,407.2,808.6,408.1,805.5,408.1z"/>
			<path class="st1" d="M831.1,408.1c-2.3,0-4.4-0.5-6.2-1.5s-3.2-2.4-4.2-4.1c-1-1.7-1.5-3.7-1.5-6c0-2.3,0.5-4.3,1.4-6
				s2.3-3.1,4-4.1c1.7-1,3.7-1.5,5.9-1.5c2.2,0,4,0.5,5.6,1.4c1.6,1,2.8,2.3,3.6,4c0.8,1.7,1.2,3.6,1.2,5.8c0,0.5-0.2,1-0.5,1.3
				c-0.4,0.3-0.8,0.5-1.4,0.5h-16.9v-3.3h16.7l-1.7,1.2c0-1.4-0.3-2.6-0.8-3.7c-0.5-1.1-1.3-2-2.3-2.6c-1-0.6-2.2-1-3.6-1
				c-1.6,0-2.9,0.3-4.1,1c-1.1,0.7-2,1.7-2.6,2.9s-0.9,2.6-0.9,4.1c0,1.5,0.3,2.9,1,4.1s1.7,2.1,2.9,2.8c1.2,0.7,2.6,1,4.2,1
				c0.9,0,1.8-0.2,2.7-0.5c0.9-0.3,1.6-0.7,2.2-1.1c0.4-0.3,0.9-0.5,1.4-0.5c0.5,0,0.9,0.1,1.3,0.4c0.5,0.4,0.7,0.9,0.8,1.4
				s-0.2,0.9-0.7,1.3c-0.9,0.8-2.1,1.4-3.5,1.8C833.7,407.9,832.3,408.1,831.1,408.1z"/>
			<path class="st1" d="M854.6,408.1c-2,0-3.8-0.3-5.4-0.9c-1.7-0.6-2.9-1.4-3.9-2.3c-0.4-0.4-0.6-1-0.5-1.5c0.1-0.6,0.3-1,0.8-1.4
				c0.6-0.4,1.1-0.6,1.7-0.6s1,0.3,1.4,0.7c0.5,0.5,1.2,1,2.3,1.5s2.2,0.7,3.5,0.7c1.6,0,2.9-0.3,3.7-0.8c0.8-0.5,1.3-1.2,1.3-2
				c0-0.8-0.4-1.6-1.2-2.2c-0.8-0.6-2.3-1.1-4.5-1.5c-2.8-0.6-4.9-1.4-6.1-2.5c-1.3-1.1-1.9-2.5-1.9-4.1c0-1.4,0.4-2.6,1.3-3.5
				c0.8-0.9,1.9-1.6,3.2-2.1c1.3-0.5,2.7-0.7,4.1-0.7c1.8,0,3.5,0.3,4.9,0.9c1.4,0.6,2.6,1.4,3.4,2.4c0.4,0.4,0.6,0.9,0.5,1.4
				c0,0.5-0.3,0.9-0.7,1.2c-0.4,0.3-1,0.4-1.6,0.3c-0.6-0.1-1.1-0.4-1.5-0.8c-0.7-0.7-1.5-1.1-2.3-1.4s-1.7-0.4-2.8-0.4
				c-1.2,0-2.3,0.2-3.1,0.6s-1.3,1-1.3,1.8c0,0.5,0.1,1,0.4,1.4s0.8,0.8,1.6,1.1c0.8,0.3,1.9,0.6,3.4,0.9c2.1,0.4,3.7,0.9,5,1.6
				c1.2,0.6,2.1,1.4,2.6,2.2c0.5,0.9,0.8,1.8,0.8,2.9c0,1.3-0.3,2.4-1,3.5c-0.7,1-1.7,1.9-3,2.5
				C858.2,407.8,856.6,408.1,854.6,408.1z"/>
		</g>
	</g>
	<g>
		<g>
			<path class="st2" d="M252,136.2c-61.4,0-111.2,49.8-111.2,111.2S190.6,358.6,252,358.6s111.2-49.8,111.2-111.2
				S313.4,136.2,252,136.2z M252,343.6c-53,0-96.2-43.2-96.2-96.2c0-53,43.2-96.2,96.2-96.2c53,0,96.2,43.1,96.2,96.2
				C348.2,300.5,305,343.6,252,343.6z"/>
		</g>
	</g>
	<g>
		<path class="st1" d="M251.6,210c-5.1-0.1-10.1-2.3-13.7-6.1c-3.6-3.8-5.5-8.7-5.3-13.8c0.3-10.2,9.3-18.7,19.5-18.7l0.2,0
			c4.9,0.1,9.9,2.3,13.5,6.1c3.7,3.9,5.7,9,5.6,14c-0.3,10.3-9,18.6-19.3,18.6L251.6,210z"/>
	</g>
	<g>
		<path class="st1" d="M273.8,322.7c-2.8,0-8.1-1.2-11.6-8.9c-3.9-8.7-7.8-17.4-11.8-26.5l-0.7-1.6c-0.8,1.5-1.5,2.9-2.3,4.3
			c-4.2,8-8.2,15.6-12.4,23.2c-2.6,4.9-6.6,7.6-11.2,7.6c-1.9,0-3.8-0.5-5.7-1.4c-3.1-1.6-5.2-4-6.2-7c-1.1-3.3-0.6-7.1,1.4-10.8
			c1.3-2.5,2.6-5,3.9-7.5c4.3-8.2,8.7-16.7,13.4-24.9c4.8-8.4,5.2-17.6,4.8-26.3c-0.3-0.7-1.6-1.9-2.4-2.2
			c-6.5-2.4-13.2-4.5-19.7-6.5c-2.5-0.8-4.9-1.5-7.4-2.3c-0.3-0.1-0.7-0.2-1-0.3c-0.9-0.3-1.9-0.6-2.9-1c-6.8-2.6-10.2-8.7-8.3-14.9
			c1.7-5.5,6.2-8.9,11.8-8.9c1.4,0,2.8,0.2,4.3,0.6c5.1,1.5,10.3,3.2,15.3,4.8c2.1,0.7,4.3,1.4,6.4,2.1c0.5,0.2,1.3,0.4,2,0.8
			c5.7,2.9,11.7,4.3,18.5,4.3c8.6,0,17.2-2.2,27.5-5.1c4.2-1.2,8.5-2.2,12.7-3.1l1.9-0.4c1.5-0.3,2.9-0.5,4.3-0.5
			c6.2,0,10.8,3.6,12.2,9.5c1.6,6.7-2.6,12.6-10.4,14.6c-9.3,2.3-19.3,4.8-29.4,7c-3,0.6-3.9,1.4-4.2,5.1c-0.8,10.1,1,19.5,5.4,28.5
			c3.4,7,6.5,14.2,9.5,21.2c1.1,2.5,2.1,4.9,3.2,7.4c1.9,4.3,2.1,8.1,0.8,11.4c-1.1,2.8-3.4,5.1-6.6,6.4
			C277,322.3,275.4,322.7,273.8,322.7z"/>
	</g>
	<g>
		<g>
			<path class="st2" d="M114.1,407.1c-2,0-3.9-0.5-5.5-1.5c-1.6-1-2.9-2.4-3.8-4.1c-0.9-1.7-1.4-3.7-1.4-5.9s0.5-4.2,1.5-5.9
				c1-1.8,2.4-3.1,4.1-4.2c1.7-1,3.7-1.5,5.9-1.5s4.1,0.5,5.9,1.5c1.7,1,3.1,2.4,4.1,4.2c1,1.8,1.5,3.7,1.5,5.9h-1.6
				c0,2.2-0.5,4.2-1.4,5.9c-0.9,1.7-2.2,3.1-3.8,4.1C117.9,406.6,116.1,407.1,114.1,407.1z M114.9,403.3c1.4,0,2.7-0.3,3.8-1
				c1.1-0.7,2-1.6,2.6-2.8c0.6-1.2,1-2.5,1-4c0-1.5-0.3-2.9-1-4c-0.6-1.2-1.5-2.1-2.6-2.8c-1.1-0.7-2.4-1-3.8-1
				c-1.4,0-2.7,0.3-3.8,1s-2,1.6-2.7,2.8c-0.7,1.2-1,2.5-1,4c0,1.5,0.3,2.8,1,4c0.7,1.2,1.5,2.1,2.7,2.8S113.5,403.3,114.9,403.3z
				 M124.3,407c-0.6,0-1.1-0.2-1.5-0.6c-0.4-0.4-0.6-0.9-0.6-1.5v-6.4l0.8-4.4l3.5,1.5v9.3c0,0.6-0.2,1.1-0.6,1.5
				C125.4,406.8,124.9,407,124.3,407z"/>
			<path class="st2" d="M139.1,406.9c-0.6,0-1-0.2-1.5-0.6c-0.4-0.4-0.6-0.9-0.6-1.5v-25.5l-3.1,1.3c-0.5,0.2-0.9,0.3-1.3,0.3
				c-0.6,0-1.1-0.2-1.5-0.6c-0.4-0.4-0.6-0.9-0.6-1.5c0-0.4,0.1-0.9,0.3-1.2c0.2-0.4,0.6-0.6,1-0.8l6.5-2.3c0.1-0.1,0.3-0.1,0.4-0.1
				c0.1,0,0.3,0,0.4,0c0.6,0,1.2,0.2,1.5,0.6c0.4,0.4,0.6,0.9,0.6,1.6v28.4c0,0.6-0.2,1.1-0.6,1.5
				C140.2,406.7,139.7,406.9,139.1,406.9z"/>
			<path class="st2" d="M155.5,406.9c-0.6,0-1-0.2-1.5-0.6c-0.4-0.4-0.6-0.9-0.6-1.5v-25.5l-3.1,1.3c-0.5,0.2-0.9,0.3-1.3,0.3
				c-0.6,0-1.1-0.2-1.5-0.6c-0.4-0.4-0.6-0.9-0.6-1.5c0-0.4,0.1-0.9,0.3-1.2c0.2-0.4,0.6-0.6,1-0.8l6.5-2.3c0.1-0.1,0.3-0.1,0.4-0.1
				c0.1,0,0.3,0,0.4,0c0.6,0,1.2,0.2,1.5,0.6c0.4,0.4,0.6,0.9,0.6,1.6v28.4c0,0.6-0.2,1.1-0.6,1.5
				C156.6,406.7,156.1,406.9,155.5,406.9z"/>
			<path class="st2" d="M174.7,406c-0.5,0.2-1,0.2-1.5,0.1c-0.5-0.2-0.8-0.5-1.1-1.1l-9.6-18.2c-0.3-0.5-0.3-1-0.1-1.5
				c0.2-0.5,0.6-0.8,1.1-1.1c0.5-0.2,1-0.2,1.5-0.1c0.5,0.2,0.8,0.5,1.1,1.1l9.2,18.2c0.3,0.5,0.4,1,0.3,1.5
				C175.5,405.4,175.2,405.8,174.7,406z M169.7,417c-0.3,0-0.6-0.1-1-0.3c-1.2-0.6-1.6-1.4-1-2.6l12.8-28.8c0.6-1.2,1.4-1.5,2.6-1
				c1.3,0.5,1.6,1.4,1,2.6l-12.8,28.8C171,416.5,170.5,417,169.7,417z"/>
			<path class="st1" d="M210,407.1c-2,0-3.9-0.5-5.5-1.5c-1.6-1-2.9-2.4-3.8-4.1c-0.9-1.7-1.4-3.7-1.4-5.9s0.5-4.2,1.5-5.9
				c1-1.8,2.4-3.1,4.1-4.2c1.7-1,3.7-1.5,5.9-1.5s4.1,0.5,5.9,1.5c1.7,1,3.1,2.4,4.1,4.2c1,1.8,1.5,3.7,1.5,5.9h-1.6
				c0,2.2-0.5,4.2-1.4,5.9c-0.9,1.7-2.2,3.1-3.8,4.1C213.8,406.6,212,407.1,210,407.1z M210.8,403.3c1.4,0,2.7-0.3,3.8-1
				c1.1-0.7,2-1.6,2.6-2.8c0.6-1.2,1-2.5,1-4c0-1.5-0.3-2.9-1-4c-0.6-1.2-1.5-2.1-2.6-2.8c-1.1-0.7-2.4-1-3.8-1
				c-1.4,0-2.7,0.3-3.8,1s-2,1.6-2.7,2.8c-0.7,1.2-1,2.5-1,4c0,1.5,0.3,2.8,1,4c0.7,1.2,1.5,2.1,2.7,2.8S209.4,403.3,210.8,403.3z
				 M220.2,407c-0.6,0-1.1-0.2-1.5-0.6c-0.4-0.4-0.6-0.9-0.6-1.5v-6.4l0.8-4.4l3.5,1.5v9.3c0,0.6-0.2,1.1-0.6,1.5
				C221.3,406.8,220.8,407,220.2,407z"/>
			<path class="st1" d="M239.1,407.1c-2.2,0-4.1-0.5-5.9-1.5c-1.7-1-3.1-2.4-4.1-4.2c-1-1.8-1.5-3.7-1.5-5.9s0.5-4.2,1.4-5.9
				c0.9-1.7,2.2-3.1,3.8-4.1c1.6-1,3.4-1.5,5.5-1.5c1.6,0,3.2,0.3,4.6,1c1.4,0.7,2.6,1.6,3.5,2.8v-11.3c0-0.6,0.2-1.2,0.6-1.5
				c0.4-0.4,0.9-0.6,1.5-0.6c0.6,0,1.2,0.2,1.5,0.6c0.4,0.4,0.6,0.9,0.6,1.5v19.1c0,2.2-0.5,4.2-1.5,5.9c-1,1.8-2.4,3.1-4.1,4.2
				C243.2,406.6,241.2,407.1,239.1,407.1z M239.1,403.3c1.4,0,2.7-0.3,3.8-1c1.1-0.7,2-1.6,2.6-2.8c0.6-1.2,1-2.5,1-4
				c0-1.5-0.3-2.8-1-4c-0.6-1.2-1.5-2.1-2.6-2.8c-1.1-0.7-2.4-1-3.8-1c-1.4,0-2.7,0.3-3.8,1s-2,1.6-2.7,2.8c-0.7,1.2-1,2.5-1,4
				c0,1.5,0.3,2.8,1,4c0.7,1.2,1.5,2.1,2.7,2.8S237.7,403.3,239.1,403.3z"/>
			<path class="st1" d="M265.8,406.9c-0.9,0-1.5-0.5-2-1.4l-8.9-18.7c-0.2-0.5-0.2-0.9-0.1-1.4c0.2-0.5,0.5-0.8,1.1-1.1
				c0.5-0.3,1-0.3,1.4-0.1c0.5,0.2,0.9,0.5,1.1,1l8.3,17.9h-2l8.2-17.9c0.3-0.5,0.6-0.8,1.2-1c0.5-0.2,1-0.1,1.6,0.1
				c0.5,0.2,0.8,0.6,1,1c0.2,0.5,0.1,0.9-0.1,1.4l-8.9,18.7C267.3,406.4,266.7,406.9,265.8,406.9z"/>
			<path class="st1" d="M291.4,407.1c-2.3,0-4.3-0.5-6-1.5c-1.7-1-3.1-2.4-4.1-4.1c-1-1.7-1.5-3.7-1.5-6c0-2.3,0.5-4.3,1.5-6
				c1-1.7,2.3-3.1,4.1-4.1c1.7-1,3.7-1.5,6-1.5c2.2,0,4.2,0.5,5.9,1.5c1.7,1,3.1,2.4,4.1,4.1c1,1.7,1.5,3.8,1.5,6
				c0,2.3-0.5,4.3-1.5,6c-1,1.7-2.3,3.1-4.1,4.1C295.6,406.6,293.6,407.1,291.4,407.1z M291.4,403.3c1.4,0,2.7-0.3,3.8-1
				c1.1-0.7,2-1.6,2.6-2.8c0.6-1.2,0.9-2.5,0.9-4.1c0-1.5-0.3-2.9-0.9-4.1c-0.6-1.2-1.5-2.1-2.6-2.8c-1.1-0.7-2.4-1-3.8-1
				c-1.5,0-2.7,0.3-3.8,1c-1.1,0.7-2,1.6-2.6,2.8s-1,2.5-1,4.1c0,1.5,0.3,2.9,1,4.1c0.6,1.2,1.5,2.1,2.6,2.8
				C288.7,403,289.9,403.3,291.4,403.3z"/>
			<path class="st1" d="M319.6,407.1c-2.2,0-4.2-0.5-6-1.5c-1.7-1-3.1-2.4-4.1-4.1c-1-1.7-1.5-3.7-1.5-5.9c0-2.3,0.5-4.3,1.5-6
				c1-1.8,2.3-3.1,4-4.1c1.7-1,3.7-1.5,5.9-1.5c1.6,0,3.2,0.3,4.5,0.9c1.4,0.6,2.6,1.6,3.7,2.8c0.4,0.4,0.5,0.9,0.4,1.4
				c-0.1,0.5-0.4,0.9-0.9,1.3c-0.4,0.3-0.8,0.4-1.3,0.3c-0.5-0.1-0.9-0.3-1.3-0.7c-1.4-1.5-3.1-2.2-5.1-2.2c-1.4,0-2.7,0.3-3.8,1
				c-1.1,0.7-1.9,1.6-2.6,2.7c-0.6,1.2-0.9,2.6-0.9,4.1c0,1.5,0.3,2.8,0.9,4c0.6,1.2,1.5,2.1,2.6,2.8c1.1,0.7,2.4,1,3.9,1
				c1,0,1.8-0.1,2.6-0.4c0.7-0.2,1.4-0.6,2-1.1c0.4-0.4,0.9-0.6,1.4-0.6c0.5,0,0.9,0.1,1.3,0.4c0.5,0.4,0.7,0.8,0.8,1.3
				c0.1,0.5-0.1,0.9-0.5,1.3C325.1,406.2,322.6,407.1,319.6,407.1z"/>
			<path class="st1" d="M343.9,407.1c-2,0-3.9-0.5-5.5-1.5c-1.6-1-2.9-2.4-3.8-4.1c-0.9-1.7-1.4-3.7-1.4-5.9s0.5-4.2,1.5-5.9
				c1-1.8,2.4-3.1,4.1-4.2c1.7-1,3.7-1.5,5.9-1.5s4.1,0.5,5.9,1.5c1.7,1,3.1,2.4,4.1,4.2c1,1.8,1.5,3.7,1.5,5.9h-1.6
				c0,2.2-0.5,4.2-1.4,5.9c-0.9,1.7-2.2,3.1-3.8,4.1C347.8,406.6,346,407.1,343.9,407.1z M344.8,403.3c1.4,0,2.7-0.3,3.8-1
				c1.1-0.7,2-1.6,2.6-2.8c0.6-1.2,1-2.5,1-4c0-1.5-0.3-2.9-1-4c-0.6-1.2-1.5-2.1-2.6-2.8c-1.1-0.7-2.4-1-3.8-1
				c-1.4,0-2.7,0.3-3.8,1s-2,1.6-2.7,2.8c-0.7,1.2-1,2.5-1,4c0,1.5,0.3,2.8,1,4c0.7,1.2,1.5,2.1,2.7,2.8S343.4,403.3,344.8,403.3z
				 M354.1,407c-0.6,0-1.1-0.2-1.5-0.6c-0.4-0.4-0.6-0.9-0.6-1.5v-6.4l0.8-4.4l3.5,1.5v9.3c0,0.6-0.2,1.1-0.6,1.5
				C355.3,406.8,354.8,407,354.1,407z"/>
			<path class="st1" d="M373,407.1c-2.2,0-4.2-0.5-6-1.5c-1.7-1-3.1-2.4-4.1-4.1c-1-1.7-1.5-3.7-1.5-5.9c0-2.3,0.5-4.3,1.5-6
				c1-1.8,2.3-3.1,4-4.1c1.7-1,3.7-1.5,5.9-1.5c1.6,0,3.2,0.3,4.5,0.9c1.4,0.6,2.6,1.6,3.7,2.8c0.4,0.4,0.5,0.9,0.4,1.4
				c-0.1,0.5-0.4,0.9-0.9,1.3c-0.4,0.3-0.8,0.4-1.3,0.3c-0.5-0.1-0.9-0.3-1.3-0.7c-1.4-1.5-3.1-2.2-5.1-2.2c-1.4,0-2.7,0.3-3.8,1
				c-1.1,0.7-1.9,1.6-2.6,2.7c-0.6,1.2-0.9,2.6-0.9,4.1c0,1.5,0.3,2.8,0.9,4c0.6,1.2,1.5,2.1,2.6,2.8c1.1,0.7,2.4,1,3.9,1
				c1,0,1.8-0.1,2.6-0.4c0.7-0.2,1.4-0.6,2-1.1c0.4-0.4,0.9-0.6,1.4-0.6c0.5,0,0.9,0.1,1.3,0.4c0.5,0.4,0.7,0.8,0.8,1.3
				c0.1,0.5-0.1,0.9-0.5,1.3C378.5,406.2,376,407.1,373,407.1z"/>
			<path class="st1" d="M396.8,406c-0.5,0.2-1,0.2-1.5,0.1c-0.5-0.2-0.8-0.5-1.1-1.1l-9.6-18.2c-0.3-0.5-0.3-1-0.1-1.5
				c0.2-0.5,0.6-0.8,1.1-1.1c0.5-0.2,1-0.2,1.5-0.1c0.5,0.2,0.8,0.5,1.1,1.1l9.2,18.2c0.3,0.5,0.4,1,0.3,1.5
				C397.6,405.4,397.3,405.8,396.8,406z M391.9,417c-0.3,0-0.6-0.1-1-0.3c-1.2-0.6-1.6-1.4-1-2.6l12.8-28.8c0.6-1.2,1.4-1.5,2.6-1
				c1.3,0.5,1.6,1.4,1,2.6l-12.8,28.8C393.2,416.5,392.6,417,391.9,417z"/>
		</g>
	</g>
	<g>
		<g>
			<path class="st3" d="M138.8,103.4c-0.3,0-0.6-0.1-0.8-0.3c-0.2-0.2-0.3-0.5-0.3-0.8V82.7c0-0.3,0.1-0.6,0.3-0.8
				c0.2-0.2,0.5-0.3,0.8-0.3h5.6c1.4,0,2.6,0.3,3.7,0.9c1.1,0.6,1.9,1.4,2.5,2.5c0.6,1.1,0.9,2.3,0.9,3.7c0,1.4-0.3,2.6-0.9,3.6
				c-0.6,1.1-1.4,1.9-2.5,2.5c-1.1,0.6-2.3,0.9-3.7,0.9h-4.5v6.6c0,0.3-0.1,0.6-0.3,0.8S139.1,103.4,138.8,103.4z M139.9,93.6h4.5
				c0.9,0,1.8-0.2,2.5-0.6c0.7-0.4,1.3-1,1.7-1.7c0.4-0.7,0.6-1.6,0.6-2.5c0-1-0.2-1.9-0.6-2.6c-0.4-0.7-1-1.3-1.7-1.8
				c-0.7-0.4-1.6-0.6-2.5-0.6h-4.5V93.6z"/>
			<path class="st3" d="M161.2,103.5c-1.4,0-2.7-0.3-3.8-1s-2-1.6-2.7-2.8c-0.7-1.2-1-2.5-1-4c0-1.5,0.3-2.8,1-4
				c0.7-1.2,1.6-2.1,2.8-2.8s2.5-1,4-1s2.8,0.3,3.9,1c1.2,0.7,2.1,1.6,2.8,2.8c0.7,1.2,1,2.5,1,4l-0.9,0.7c0,1.3-0.3,2.5-0.9,3.6
				c-0.6,1.1-1.5,1.9-2.5,2.5C163.8,103.2,162.6,103.5,161.2,103.5z M161.4,101.6c1.1,0,2-0.3,2.9-0.8c0.8-0.5,1.5-1.2,2-2.1
				c0.5-0.9,0.7-1.9,0.7-3c0-1.1-0.2-2.1-0.7-3c-0.5-0.9-1.2-1.6-2-2.1c-0.8-0.5-1.8-0.8-2.9-0.8c-1.1,0-2,0.3-2.9,0.8
				c-0.9,0.5-1.5,1.2-2,2.1c-0.5,0.9-0.8,1.9-0.8,3c0,1.1,0.3,2.1,0.8,3c0.5,0.9,1.2,1.6,2,2.1S160.4,101.6,161.4,101.6z
				 M168.1,103.4c-0.3,0-0.6-0.1-0.8-0.3c-0.2-0.2-0.3-0.5-0.3-0.8v-4.8l0.5-2.2l1.6,0.4v6.6c0,0.3-0.1,0.6-0.3,0.8
				S168.4,103.4,168.1,103.4z"/>
			<path class="st3" d="M178.7,103.5c-1.1,0-2.2-0.2-3.3-0.6c-1.1-0.4-2-0.9-2.6-1.7c-0.2-0.2-0.3-0.5-0.3-0.8
				c0-0.3,0.2-0.5,0.4-0.7c0.3-0.2,0.5-0.3,0.8-0.2c0.3,0,0.5,0.2,0.7,0.4c0.4,0.5,1,0.9,1.8,1.2c0.7,0.3,1.5,0.4,2.4,0.4
				c1.4,0,2.4-0.2,3-0.7s0.9-1,0.9-1.7c0-0.7-0.3-1.2-0.9-1.7c-0.6-0.4-1.7-0.8-3.1-1c-1.9-0.3-3.3-0.8-4.1-1.6
				c-0.9-0.7-1.3-1.6-1.3-2.6c0-0.9,0.3-1.7,0.8-2.4c0.5-0.6,1.2-1.1,2-1.4c0.8-0.3,1.8-0.5,2.8-0.5c1.2,0,2.3,0.2,3.2,0.6
				s1.6,1,2.2,1.7c0.2,0.2,0.3,0.5,0.2,0.8c0,0.3-0.2,0.5-0.4,0.6c-0.2,0.1-0.5,0.2-0.8,0.1c-0.3,0-0.5-0.2-0.7-0.4
				c-0.5-0.5-1-0.9-1.6-1.2c-0.6-0.3-1.3-0.4-2.1-0.4c-1,0-1.8,0.2-2.5,0.6c-0.6,0.4-0.9,0.9-0.9,1.6c0,0.4,0.1,0.8,0.3,1.1
				c0.2,0.3,0.6,0.6,1.2,0.8c0.6,0.2,1.4,0.4,2.4,0.6c1.4,0.2,2.5,0.6,3.3,1c0.8,0.4,1.4,0.9,1.7,1.5c0.3,0.6,0.5,1.2,0.5,1.9
				c0,0.9-0.3,1.6-0.8,2.3c-0.5,0.7-1.2,1.2-2.1,1.5C180.9,103.3,179.9,103.5,178.7,103.5z"/>
			<path class="st3" d="M193.7,103.5c-1.1,0-2.2-0.2-3.3-0.6c-1.1-0.4-2-0.9-2.6-1.7c-0.2-0.2-0.3-0.5-0.3-0.8
				c0-0.3,0.2-0.5,0.4-0.7c0.3-0.2,0.5-0.3,0.8-0.2c0.3,0,0.5,0.2,0.7,0.4c0.4,0.5,1,0.9,1.8,1.2c0.7,0.3,1.5,0.4,2.4,0.4
				c1.4,0,2.4-0.2,3-0.7s0.9-1,0.9-1.7c0-0.7-0.3-1.2-0.9-1.7c-0.6-0.4-1.7-0.8-3.1-1c-1.9-0.3-3.3-0.8-4.1-1.6
				c-0.9-0.7-1.3-1.6-1.3-2.6c0-0.9,0.3-1.7,0.8-2.4c0.5-0.6,1.2-1.1,2-1.4c0.8-0.3,1.8-0.5,2.8-0.5c1.2,0,2.3,0.2,3.2,0.6
				s1.6,1,2.2,1.7c0.2,0.2,0.3,0.5,0.2,0.8c0,0.3-0.2,0.5-0.4,0.6c-0.2,0.1-0.5,0.2-0.8,0.1c-0.3,0-0.5-0.2-0.7-0.4
				c-0.5-0.5-1-0.9-1.6-1.2c-0.6-0.3-1.3-0.4-2.1-0.4c-1,0-1.8,0.2-2.5,0.6c-0.6,0.4-0.9,0.9-0.9,1.6c0,0.4,0.1,0.8,0.3,1.1
				c0.2,0.3,0.6,0.6,1.2,0.8c0.6,0.2,1.4,0.4,2.4,0.6c1.4,0.2,2.5,0.6,3.3,1c0.8,0.4,1.4,0.9,1.7,1.5c0.3,0.6,0.5,1.2,0.5,1.9
				c0,0.9-0.3,1.6-0.8,2.3c-0.5,0.7-1.2,1.2-2.1,1.5C196,103.3,194.9,103.5,193.7,103.5z"/>
			<path class="st3" d="M205,85.2c-0.4,0-0.8-0.1-1.1-0.4s-0.4-0.7-0.4-1.1c0-0.5,0.2-0.8,0.5-1.1c0.3-0.3,0.7-0.4,1.1-0.4
				c0.4,0,0.7,0.1,1,0.4c0.3,0.3,0.5,0.6,0.5,1.1c0,0.4-0.1,0.8-0.4,1.1S205.4,85.2,205,85.2z M205,103.4c-0.3,0-0.6-0.1-0.8-0.3
				s-0.3-0.5-0.3-0.8V89.2c0-0.3,0.1-0.6,0.3-0.8s0.5-0.3,0.8-0.3c0.3,0,0.6,0.1,0.8,0.3c0.2,0.2,0.3,0.5,0.3,0.8v13.1
				c0,0.3-0.1,0.6-0.3,0.8C205.6,103.3,205.3,103.4,205,103.4z"/>
			<path class="st3" d="M218.5,103.5c-1.5,0-2.8-0.3-4-1c-1.2-0.7-2.1-1.6-2.8-2.8s-1-2.5-1-4c0-1.5,0.3-2.8,1-4s1.6-2.1,2.8-2.8
				s2.5-1,4-1s2.8,0.3,4,1s2.1,1.6,2.7,2.8s1,2.5,1,4c0,1.5-0.3,2.8-1,4c-0.7,1.2-1.6,2.1-2.8,2.8
				C221.3,103.2,219.9,103.5,218.5,103.5z M218.5,101.6c1.1,0,2-0.3,2.9-0.8s1.5-1.2,2-2.1c0.5-0.9,0.7-1.9,0.7-3
				c0-1.1-0.2-2.1-0.7-3c-0.5-0.9-1.2-1.6-2-2.1s-1.8-0.8-2.9-0.8s-2,0.3-2.9,0.8c-0.9,0.5-1.5,1.2-2,2.1c-0.5,0.9-0.7,1.9-0.7,3
				c0,1.1,0.2,2.1,0.7,3s1.2,1.6,2,2.1C216.4,101.3,217.4,101.6,218.5,101.6z"/>
			<path class="st3" d="M231.5,103.4c-0.3,0-0.6-0.1-0.8-0.3s-0.3-0.5-0.3-0.8V89.2c0-0.3,0.1-0.6,0.3-0.8s0.5-0.3,0.8-0.3
				c0.3,0,0.6,0.1,0.8,0.3c0.2,0.2,0.3,0.5,0.3,0.8v13.1c0,0.3-0.1,0.6-0.3,0.8C232,103.3,231.8,103.4,231.5,103.4z M243.5,103.4
				c-0.3,0-0.6-0.1-0.8-0.3c-0.2-0.2-0.3-0.5-0.3-0.8v-7.3c0-1.2-0.2-2.1-0.7-2.8c-0.4-0.7-1-1.3-1.8-1.7s-1.6-0.6-2.6-0.6
				c-0.9,0-1.7,0.2-2.5,0.5c-0.7,0.4-1.3,0.8-1.7,1.5c-0.4,0.6-0.6,1.3-0.6,2.1H231c0-1.2,0.4-2.2,0.9-3.1c0.6-0.9,1.4-1.6,2.4-2.2
				c1-0.5,2.1-0.8,3.3-0.8c1.3,0,2.5,0.3,3.5,0.8c1,0.5,1.9,1.4,2.5,2.4c0.6,1.1,0.9,2.4,0.9,3.9v7.3c0,0.3-0.1,0.5-0.3,0.8
				S243.8,103.4,243.5,103.4z"/>
			<path class="st3" d="M257.1,105.6c-0.4,0-0.7-0.2-0.9-0.5c-0.2-0.3-0.2-0.7-0.1-1.1l8.8-21.8c0.1-0.2,0.2-0.4,0.4-0.5
				c0.2-0.1,0.4-0.2,0.6-0.2c0.4,0,0.7,0.2,0.9,0.5c0.2,0.3,0.2,0.7,0.1,1l-8.8,21.9c-0.1,0.2-0.2,0.4-0.4,0.5
				S257.3,105.6,257.1,105.6z"/>
			<path class="st3" d="M286.2,103.4c-0.5,0-0.8-0.2-1-0.7l-8.3-19.4c-0.2-0.5-0.2-0.9,0-1.2s0.5-0.5,0.9-0.5c0.5,0,0.8,0.2,1,0.7
				l7.7,18.4h-0.6l7.7-18.4c0.1-0.3,0.3-0.5,0.4-0.6c0.2-0.1,0.4-0.2,0.7-0.2c0.4,0,0.7,0.2,0.9,0.5c0.1,0.3,0.1,0.7,0,1.1
				l-8.3,19.5c-0.1,0.3-0.3,0.4-0.4,0.5C286.6,103.3,286.4,103.4,286.2,103.4z"/>
			<path class="st3" d="M305.4,103.5c-1.4,0-2.7-0.3-3.8-1s-2-1.6-2.7-2.8c-0.7-1.2-1-2.5-1-4c0-1.5,0.3-2.8,1-4
				c0.7-1.2,1.6-2.1,2.8-2.8s2.5-1,4-1s2.8,0.3,3.9,1c1.2,0.7,2.1,1.6,2.8,2.8c0.7,1.2,1,2.5,1,4l-0.9,0.7c0,1.3-0.3,2.5-0.9,3.6
				c-0.6,1.1-1.5,1.9-2.5,2.5C308,103.2,306.7,103.5,305.4,103.5z M305.6,101.6c1.1,0,2-0.3,2.9-0.8c0.8-0.5,1.5-1.2,2-2.1
				c0.5-0.9,0.7-1.9,0.7-3c0-1.1-0.2-2.1-0.7-3c-0.5-0.9-1.2-1.6-2-2.1c-0.8-0.5-1.8-0.8-2.9-0.8c-1.1,0-2,0.3-2.9,0.8
				c-0.9,0.5-1.5,1.2-2,2.1c-0.5,0.9-0.8,1.9-0.8,3c0,1.1,0.3,2.1,0.8,3c0.5,0.9,1.2,1.6,2,2.1S304.5,101.6,305.6,101.6z
				 M312.3,103.4c-0.3,0-0.6-0.1-0.8-0.3c-0.2-0.2-0.3-0.5-0.3-0.8v-4.8l0.5-2.2l1.6,0.4v6.6c0,0.3-0.1,0.6-0.3,0.8
				S312.6,103.4,312.3,103.4z"/>
			<path class="st3" d="M320.8,103.4c-0.7,0-1.4-0.2-2-0.6c-0.6-0.4-1-1-1.4-1.7c-0.3-0.7-0.5-1.6-0.5-2.5V82.7
				c0-0.3,0.1-0.6,0.3-0.8s0.5-0.3,0.8-0.3c0.3,0,0.6,0.1,0.8,0.3s0.3,0.5,0.3,0.8v15.9c0,0.8,0.2,1.5,0.5,2s0.7,0.8,1.2,0.8h0.7
				c0.3,0,0.5,0.1,0.7,0.3c0.2,0.2,0.3,0.5,0.3,0.8c0,0.3-0.1,0.6-0.3,0.8c-0.2,0.2-0.5,0.3-0.9,0.3H320.8z"/>
			<path class="st3" d="M332,103.5c-1.3,0-2.5-0.3-3.5-0.8c-1-0.5-1.9-1.4-2.5-2.4c-0.6-1.1-0.9-2.4-0.9-3.9v-7.3
				c0-0.3,0.1-0.5,0.3-0.8c0.2-0.2,0.5-0.3,0.8-0.3c0.3,0,0.6,0.1,0.8,0.3c0.2,0.2,0.3,0.5,0.3,0.8v7.3c0,1.2,0.2,2.1,0.7,2.8
				s1,1.3,1.8,1.7c0.8,0.4,1.6,0.6,2.6,0.6c0.9,0,1.7-0.2,2.5-0.5c0.7-0.4,1.3-0.8,1.7-1.5s0.6-1.3,0.6-2.1h1.5
				c-0.1,1.2-0.4,2.2-1,3.1s-1.4,1.6-2.4,2.2C334.3,103.3,333.2,103.5,332,103.5z M338.2,103.4c-0.3,0-0.6-0.1-0.8-0.3
				s-0.3-0.5-0.3-0.8V89.2c0-0.3,0.1-0.6,0.3-0.8s0.5-0.3,0.8-0.3c0.3,0,0.6,0.1,0.8,0.3c0.2,0.2,0.3,0.5,0.3,0.8v13.1
				c0,0.3-0.1,0.6-0.3,0.8C338.8,103.3,338.5,103.4,338.2,103.4z"/>
			<path class="st3" d="M351.2,103.5c-1.5,0-2.8-0.3-4-1c-1.2-0.7-2.1-1.6-2.7-2.7c-0.7-1.2-1-2.5-1-4c0-1.5,0.3-2.9,0.9-4
				c0.6-1.2,1.5-2.1,2.6-2.7c1.1-0.7,2.4-1,3.8-1c1.4,0,2.6,0.3,3.7,1c1.1,0.6,1.9,1.5,2.4,2.7c0.6,1.1,0.9,2.4,0.9,3.9
				c0,0.3-0.1,0.5-0.3,0.7s-0.4,0.3-0.7,0.3h-11.9v-1.8H357l-1.2,0.9c0-1.1-0.2-2-0.6-2.9c-0.4-0.9-1-1.5-1.7-2
				c-0.8-0.5-1.7-0.7-2.7-0.7c-1.1,0-2,0.3-2.8,0.8c-0.8,0.5-1.4,1.2-1.9,2.1c-0.4,0.9-0.7,1.9-0.7,3c0,1.1,0.2,2.1,0.7,3
				c0.5,0.9,1.2,1.6,2,2.1c0.9,0.5,1.8,0.8,3,0.8c0.7,0,1.3-0.1,2-0.3s1.2-0.5,1.6-0.9c0.2-0.2,0.4-0.3,0.7-0.3
				c0.3,0,0.5,0.1,0.7,0.2c0.2,0.2,0.4,0.5,0.4,0.7c0,0.3-0.1,0.5-0.3,0.7c-0.6,0.5-1.4,1-2.3,1.3
				C353,103.3,352.1,103.5,351.2,103.5z"/>
			<path class="st3" d="M366.7,103.5c-1.1,0-2.2-0.2-3.3-0.6c-1.1-0.4-2-0.9-2.6-1.7c-0.2-0.2-0.3-0.5-0.3-0.8
				c0-0.3,0.2-0.5,0.4-0.7c0.3-0.2,0.5-0.3,0.8-0.2c0.3,0,0.5,0.2,0.7,0.4c0.4,0.5,1,0.9,1.8,1.2c0.7,0.3,1.5,0.4,2.4,0.4
				c1.4,0,2.4-0.2,3-0.7s0.9-1,0.9-1.7c0-0.7-0.3-1.2-0.9-1.7c-0.6-0.4-1.7-0.8-3.1-1c-1.9-0.3-3.3-0.8-4.1-1.6
				c-0.9-0.7-1.3-1.6-1.3-2.6c0-0.9,0.3-1.7,0.8-2.4c0.5-0.6,1.2-1.1,2-1.4c0.8-0.3,1.8-0.5,2.8-0.5c1.2,0,2.3,0.2,3.2,0.6
				s1.6,1,2.2,1.7c0.2,0.2,0.3,0.5,0.2,0.8c0,0.3-0.2,0.5-0.4,0.6c-0.2,0.1-0.5,0.2-0.8,0.1c-0.3,0-0.5-0.2-0.7-0.4
				c-0.5-0.5-1-0.9-1.6-1.2c-0.6-0.3-1.3-0.4-2.1-0.4c-1,0-1.8,0.2-2.5,0.6c-0.6,0.4-0.9,0.9-0.9,1.6c0,0.4,0.1,0.8,0.3,1.1
				c0.2,0.3,0.6,0.6,1.2,0.8c0.6,0.2,1.4,0.4,2.4,0.6c1.4,0.2,2.5,0.6,3.3,1c0.8,0.4,1.4,0.9,1.7,1.5c0.3,0.6,0.5,1.2,0.5,1.9
				c0,0.9-0.3,1.6-0.8,2.3c-0.5,0.7-1.2,1.2-2.1,1.5C368.9,103.3,367.9,103.5,366.7,103.5z"/>
		</g>
	</g>
	<g>
		<g>
			<path class="st3" d="M599.9,104.4c-0.3,0-0.6-0.1-0.8-0.3c-0.2-0.2-0.3-0.5-0.3-0.8V83.8c0-0.3,0.1-0.6,0.3-0.8
				c0.2-0.2,0.5-0.3,0.8-0.3c0.3,0,0.6,0.1,0.8,0.3s0.3,0.5,0.3,0.8v8.7h13.6v-8.7c0-0.3,0.1-0.6,0.3-0.8c0.2-0.2,0.5-0.3,0.8-0.3
				c0.3,0,0.6,0.1,0.8,0.3s0.3,0.5,0.3,0.8v19.6c0,0.3-0.1,0.6-0.3,0.8s-0.5,0.3-0.8,0.3c-0.3,0-0.6-0.1-0.8-0.3
				c-0.2-0.2-0.3-0.5-0.3-0.8v-9H601v9c0,0.3-0.1,0.6-0.3,0.8S600.3,104.4,599.9,104.4z"/>
			<path class="st3" d="M629.1,104.6c-1.5,0-2.8-0.3-4-1c-1.2-0.7-2.1-1.6-2.8-2.8s-1-2.5-1-4c0-1.5,0.3-2.8,1-4s1.6-2.1,2.8-2.8
				s2.5-1,4-1s2.8,0.3,4,1s2.1,1.6,2.7,2.8s1,2.5,1,4c0,1.5-0.3,2.8-1,4c-0.7,1.2-1.6,2.1-2.8,2.8
				C631.9,104.3,630.5,104.6,629.1,104.6z M629.1,102.6c1.1,0,2-0.3,2.9-0.8s1.5-1.2,2-2.1c0.5-0.9,0.7-1.9,0.7-3
				c0-1.1-0.2-2.1-0.7-3c-0.5-0.9-1.2-1.6-2-2.1s-1.8-0.8-2.9-0.8s-2,0.3-2.9,0.8c-0.9,0.5-1.5,1.2-2,2.1c-0.5,0.9-0.7,1.9-0.7,3
				c0,1.1,0.2,2.1,0.7,3s1.2,1.6,2,2.1C627,102.4,628,102.6,629.1,102.6z"/>
			<path class="st3" d="M648.7,104.6c-1.5,0-2.8-0.3-3.9-1c-1.2-0.7-2.1-1.6-2.8-2.7c-0.7-1.2-1-2.5-1-3.9V83.8
				c0-0.3,0.1-0.6,0.3-0.8s0.5-0.3,0.8-0.3c0.3,0,0.6,0.1,0.8,0.3c0.2,0.2,0.3,0.5,0.3,0.8V92c0.6-0.9,1.4-1.6,2.4-2.1
				c1-0.5,2.1-0.8,3.4-0.8c1.4,0,2.7,0.3,3.8,1c1.1,0.7,2,1.6,2.7,2.8c0.7,1.2,1,2.5,1,4c0,1.5-0.3,2.8-1,4s-1.6,2.1-2.8,2.8
				S650.2,104.6,648.7,104.6z M648.7,102.6c1.1,0,2-0.3,2.9-0.8c0.9-0.5,1.5-1.2,2-2.1c0.5-0.9,0.7-1.9,0.7-3c0-1.1-0.2-2.1-0.7-3
				c-0.5-0.9-1.2-1.6-2-2.1c-0.9-0.5-1.8-0.8-2.9-0.8c-1.1,0-2,0.3-2.9,0.8c-0.9,0.5-1.5,1.2-2,2.1c-0.5,0.9-0.7,1.9-0.7,3
				c0,1.1,0.2,2.1,0.7,3s1.2,1.6,2,2.1C646.7,102.4,647.7,102.6,648.7,102.6z"/>
			<path class="st3" d="M668.4,104.6c-1.5,0-2.8-0.3-3.9-1c-1.2-0.7-2.1-1.6-2.8-2.7c-0.7-1.2-1-2.5-1-3.9V83.8
				c0-0.3,0.1-0.6,0.3-0.8s0.5-0.3,0.8-0.3c0.3,0,0.6,0.1,0.8,0.3c0.2,0.2,0.3,0.5,0.3,0.8V92c0.6-0.9,1.4-1.6,2.4-2.1
				c1-0.5,2.1-0.8,3.4-0.8c1.4,0,2.7,0.3,3.8,1c1.1,0.7,2,1.6,2.7,2.8c0.7,1.2,1,2.5,1,4c0,1.5-0.3,2.8-1,4s-1.6,2.1-2.8,2.8
				S669.9,104.6,668.4,104.6z M668.4,102.6c1.1,0,2-0.3,2.9-0.8c0.9-0.5,1.5-1.2,2-2.1c0.5-0.9,0.7-1.9,0.7-3c0-1.1-0.2-2.1-0.7-3
				c-0.5-0.9-1.2-1.6-2-2.1c-0.9-0.5-1.8-0.8-2.9-0.8c-1.1,0-2,0.3-2.9,0.8c-0.9,0.5-1.5,1.2-2,2.1c-0.5,0.9-0.7,1.9-0.7,3
				c0,1.1,0.2,2.1,0.7,3s1.2,1.6,2,2.1C666.4,102.4,667.4,102.6,668.4,102.6z"/>
			<path class="st3" d="M686.1,104c-0.3,0.1-0.5,0.2-0.8,0.1c-0.2-0.1-0.4-0.3-0.6-0.5l-6.2-12.9c-0.1-0.3-0.1-0.5-0.1-0.8
				c0.1-0.2,0.3-0.4,0.6-0.6c0.3-0.1,0.5-0.2,0.8-0.1c0.2,0.1,0.4,0.3,0.6,0.5l6.1,12.9c0.1,0.3,0.2,0.5,0.1,0.8
				C686.6,103.7,686.4,103.8,686.1,104z M683,111.1c-0.1,0-0.3,0-0.5-0.1c-0.6-0.3-0.8-0.7-0.5-1.3l9-19.9c0.3-0.6,0.7-0.8,1.3-0.5
				c0.6,0.3,0.8,0.7,0.5,1.3l-9,19.9C683.7,110.9,683.4,111.1,683,111.1z"/>
			<path class="st3" d="M703.5,106.6c-0.4,0-0.7-0.2-0.9-0.5c-0.2-0.3-0.2-0.7-0.1-1.1l8.8-21.8c0.1-0.2,0.2-0.4,0.4-0.5
				c0.2-0.1,0.4-0.2,0.6-0.2c0.4,0,0.7,0.2,0.9,0.5c0.2,0.3,0.2,0.7,0.1,1l-8.8,21.9c-0.1,0.2-0.2,0.4-0.4,0.5
				S703.7,106.6,703.5,106.6z"/>
			<path class="st3" d="M724,84.6c-0.3,0-0.5-0.1-0.7-0.3c-0.2-0.2-0.3-0.4-0.3-0.7c0-0.3,0.1-0.5,0.3-0.7c0.2-0.2,0.4-0.3,0.7-0.3
				h15.4c0.3,0,0.5,0.1,0.7,0.3c0.2,0.2,0.3,0.4,0.3,0.7c0,0.3-0.1,0.5-0.3,0.7c-0.2,0.2-0.4,0.3-0.7,0.3H724z M731.7,104.4
				c-0.3,0-0.6-0.1-0.8-0.3c-0.2-0.2-0.3-0.5-0.3-0.8V82.7h2.2v20.7c0,0.3-0.1,0.6-0.3,0.8C732.3,104.3,732.1,104.4,731.7,104.4z"/>
			<path class="st3" d="M744.5,104.4c-0.3,0-0.6-0.1-0.8-0.3c-0.2-0.2-0.3-0.4-0.3-0.8V90.3c0-0.3,0.1-0.6,0.3-0.8
				c0.2-0.2,0.4-0.3,0.8-0.3c0.3,0,0.6,0.1,0.8,0.3c0.2,0.2,0.3,0.4,0.3,0.8v13.1c0,0.3-0.1,0.6-0.3,0.8
				C745.1,104.4,744.8,104.4,744.5,104.4z M744.3,95c0.1-1.2,0.4-2.2,0.9-3.1c0.5-0.9,1.3-1.6,2.1-2.1c0.9-0.5,1.9-0.8,2.9-0.8
				c0.9,0,1.5,0.1,2,0.4c0.5,0.2,0.6,0.6,0.5,1.1c-0.1,0.3-0.2,0.5-0.4,0.6c-0.2,0.1-0.4,0.1-0.6,0.1c-0.2,0-0.5,0-0.9-0.1
				c-1-0.1-2,0-2.8,0.3c-0.8,0.3-1.5,0.8-1.9,1.4c-0.5,0.6-0.7,1.4-0.7,2.3H744.3z"/>
			<path class="st3" d="M763.1,104.6c-1.5,0-2.8-0.3-4-1c-1.2-0.7-2.1-1.6-2.8-2.8c-0.7-1.2-1-2.5-1-4c0-1.5,0.3-2.8,1-4
				c0.7-1.2,1.6-2.1,2.8-2.8c1.2-0.7,2.5-1,4-1s2.8,0.3,4,1c1.2,0.7,2.1,1.6,2.7,2.8c0.7,1.2,1,2.5,1,4c0,1.5-0.3,2.8-1,4
				s-1.6,2.1-2.8,2.8C765.9,104.3,764.6,104.6,763.1,104.6z M763.1,102.6c1.1,0,2-0.3,2.9-0.8s1.5-1.2,2-2.1s0.7-1.9,0.7-3
				c0-1.1-0.2-2.1-0.7-3c-0.5-0.9-1.2-1.6-2-2.1s-1.8-0.8-2.9-0.8s-2,0.3-2.9,0.8s-1.5,1.2-2,2.1c-0.5,0.9-0.7,1.9-0.7,3
				c0,1.1,0.2,2.1,0.7,3c0.5,0.9,1.2,1.6,2,2.1S762,102.6,763.1,102.6z"/>
			<path class="st3" d="M778.3,104.4c-0.7,0-1.4-0.2-2-0.6c-0.6-0.4-1-1-1.4-1.7c-0.3-0.7-0.5-1.6-0.5-2.5V83.7
				c0-0.3,0.1-0.6,0.3-0.8s0.5-0.3,0.8-0.3s0.6,0.1,0.8,0.3s0.3,0.5,0.3,0.8v15.9c0,0.8,0.2,1.5,0.5,2s0.7,0.8,1.2,0.8h0.7
				c0.3,0,0.5,0.1,0.7,0.3c0.2,0.2,0.3,0.5,0.3,0.8c0,0.3-0.1,0.6-0.3,0.8s-0.5,0.3-0.9,0.3H778.3z"/>
			<path class="st3" d="M786.2,104.4c-0.7,0-1.4-0.2-2-0.6c-0.6-0.4-1-1-1.4-1.7c-0.3-0.7-0.5-1.6-0.5-2.5V83.7
				c0-0.3,0.1-0.6,0.3-0.8s0.5-0.3,0.8-0.3s0.6,0.1,0.8,0.3s0.3,0.5,0.3,0.8v15.9c0,0.8,0.2,1.5,0.5,2s0.7,0.8,1.2,0.8h0.7
				c0.3,0,0.5,0.1,0.7,0.3c0.2,0.2,0.3,0.5,0.3,0.8c0,0.3-0.1,0.6-0.3,0.8s-0.5,0.3-0.9,0.3H786.2z"/>
			<path class="st3" d="M792.3,86.3c-0.4,0-0.8-0.1-1.1-0.4c-0.3-0.3-0.4-0.7-0.4-1.1c0-0.5,0.2-0.8,0.5-1.1
				c0.3-0.3,0.7-0.4,1.1-0.4c0.4,0,0.7,0.1,1,0.4c0.3,0.3,0.5,0.6,0.5,1.1c0,0.4-0.1,0.8-0.4,1.1C793.1,86.1,792.7,86.3,792.3,86.3z
				 M792.3,104.4c-0.3,0-0.6-0.1-0.8-0.3s-0.3-0.5-0.3-0.8V90.3c0-0.3,0.1-0.6,0.3-0.8s0.5-0.3,0.8-0.3c0.3,0,0.6,0.1,0.8,0.3
				s0.3,0.5,0.3,0.8v13.1c0,0.3-0.1,0.6-0.3,0.8S792.6,104.4,792.3,104.4z"/>
			<path class="st3" d="M799.9,104.4c-0.3,0-0.6-0.1-0.8-0.3s-0.3-0.5-0.3-0.8V90.3c0-0.3,0.1-0.6,0.3-0.8s0.5-0.3,0.8-0.3
				c0.3,0,0.6,0.1,0.8,0.3s0.3,0.5,0.3,0.8v13.1c0,0.3-0.1,0.6-0.3,0.8S800.2,104.4,799.9,104.4z M811.9,104.4
				c-0.3,0-0.6-0.1-0.8-0.3c-0.2-0.2-0.3-0.5-0.3-0.8v-7.3c0-1.2-0.2-2.1-0.7-2.8c-0.4-0.7-1-1.3-1.8-1.7s-1.6-0.6-2.6-0.6
				c-0.9,0-1.7,0.2-2.5,0.5s-1.3,0.8-1.7,1.5c-0.4,0.6-0.6,1.3-0.6,2.1h-1.5c0-1.2,0.4-2.2,0.9-3.1c0.6-0.9,1.4-1.6,2.4-2.2
				c1-0.5,2.1-0.8,3.3-0.8c1.3,0,2.5,0.3,3.5,0.8c1,0.5,1.9,1.4,2.5,2.4c0.6,1.1,0.9,2.4,0.9,3.9v7.3c0,0.3-0.1,0.5-0.3,0.8
				C812.5,104.3,812.2,104.4,811.9,104.4z"/>
			<path class="st3" d="M824.4,104.6c-1.5,0-2.8-0.3-3.9-1c-1.1-0.7-2-1.6-2.7-2.7s-1-2.5-1-4c0-1.5,0.3-2.9,1-4
				c0.7-1.2,1.6-2.1,2.8-2.7c1.2-0.7,2.5-1,4-1c1.5,0,2.8,0.3,4,1s2.1,1.6,2.7,2.7c0.7,1.2,1,2.5,1,4l-1.3,0.7
				c0,1.4-0.3,2.6-0.9,3.7c-0.6,1.1-1.4,1.9-2.4,2.5C826.9,104.3,825.7,104.6,824.4,104.6z M824.7,110.5c-1.5,0-2.8-0.3-3.9-0.8
				c-1.1-0.5-2-1.3-2.8-2.2c-0.2-0.2-0.3-0.5-0.3-0.7c0-0.3,0.2-0.5,0.4-0.6c0.2-0.2,0.5-0.2,0.8-0.2c0.3,0.1,0.5,0.2,0.7,0.4
				c0.5,0.7,1.2,1.2,2.1,1.6c0.8,0.4,1.8,0.6,2.9,0.6c1,0,2-0.3,2.8-0.8s1.5-1.2,2-2.1c0.5-0.9,0.7-2,0.7-3.2v-4.2l0.8-1.6l1.3,0.3
				v5.7c0,1.5-0.3,2.9-1,4.1c-0.7,1.2-1.6,2.1-2.7,2.8C827.5,110.1,826.2,110.5,824.7,110.5z M824.7,102.6c1.1,0,2.1-0.2,2.9-0.7
				c0.8-0.5,1.5-1.2,2-2c0.5-0.9,0.7-1.9,0.7-3c0-1.1-0.2-2.1-0.7-3c-0.5-0.9-1.1-1.6-2-2.1c-0.8-0.5-1.8-0.7-2.9-0.7
				s-2.1,0.2-2.9,0.7c-0.9,0.5-1.5,1.2-2,2.1c-0.5,0.9-0.7,1.9-0.7,3c0,1.1,0.2,2.1,0.7,3c0.5,0.9,1.2,1.6,2,2
				C822.6,102.4,823.6,102.6,824.7,102.6z"/>
		</g>
	</g>
	<g>
		<g>
			<path class="st3" d="M1082.6,108.8c-1.2,0-2.3-0.2-3.3-0.5c-1-0.3-1.9-0.8-2.6-1.5c-0.7-0.6-1.3-1.4-1.7-2.2
				c-0.1-0.3-0.2-0.6,0-0.8c0.1-0.3,0.4-0.4,0.7-0.5c0.3-0.1,0.5,0,0.8,0.1s0.4,0.3,0.6,0.6c0.3,0.5,0.7,1,1.2,1.5
				c0.5,0.4,1.2,0.8,1.9,1c0.7,0.2,1.6,0.3,2.5,0.3c1,0,1.9-0.2,2.6-0.5c0.8-0.3,1.4-0.8,1.8-1.4c0.4-0.6,0.7-1.4,0.7-2.3
				c0-1.1-0.4-2.1-1.3-2.9c-0.8-0.8-2.1-1.3-3.9-1.6c-2.2-0.3-3.9-0.9-5.1-2c-1.2-1.1-1.8-2.4-1.8-4c0-1.1,0.3-2.1,0.9-3
				c0.6-0.8,1.4-1.5,2.5-1.9c1.1-0.5,2.3-0.7,3.7-0.7c1,0,2,0.2,2.8,0.5c0.8,0.3,1.6,0.8,2.2,1.3s1.1,1.1,1.5,1.7
				c0.2,0.3,0.2,0.6,0.2,0.9c-0.1,0.3-0.2,0.5-0.5,0.6c-0.3,0.1-0.6,0.1-0.9,0.1c-0.3-0.1-0.5-0.3-0.7-0.5c-0.3-0.4-0.6-0.8-1-1.2
				c-0.4-0.4-0.9-0.7-1.5-0.9s-1.3-0.3-2.1-0.4c-1.5,0-2.6,0.3-3.5,0.9c-0.9,0.6-1.3,1.5-1.3,2.7c0,0.6,0.2,1.2,0.5,1.7
				c0.3,0.5,0.9,1,1.7,1.4c0.8,0.4,1.8,0.7,3.1,0.9c2.3,0.3,4,1,5.2,2.1c1.1,1.1,1.7,2.5,1.7,4.3c0,1-0.2,1.9-0.5,2.7
				c-0.4,0.8-0.9,1.4-1.5,2c-0.7,0.5-1.4,0.9-2.3,1.2C1084.5,108.7,1083.6,108.8,1082.6,108.8z"/>
			<path class="st3" d="M1095.6,90.4c-0.4,0-0.8-0.1-1.1-0.4c-0.3-0.3-0.4-0.7-0.4-1.1c0-0.5,0.2-0.8,0.5-1.1
				c0.3-0.3,0.7-0.4,1.1-0.4c0.4,0,0.7,0.1,1,0.4c0.3,0.3,0.5,0.6,0.5,1.1c0,0.4-0.1,0.8-0.4,1.1C1096.4,90.2,1096,90.4,1095.6,90.4
				z M1095.6,108.5c-0.3,0-0.6-0.1-0.8-0.3s-0.3-0.5-0.3-0.8V94.4c0-0.3,0.1-0.6,0.3-0.8s0.5-0.3,0.8-0.3c0.3,0,0.6,0.1,0.8,0.3
				s0.3,0.5,0.3,0.8v13.1c0,0.3-0.1,0.6-0.3,0.8S1095.9,108.5,1095.6,108.5z"/>
			<path class="st3" d="M1109.1,108.7c-1.5,0-2.8-0.3-4-1c-1.2-0.7-2.1-1.6-2.8-2.8s-1-2.5-1-4c0-1.5,0.3-2.8,1-4
				c0.7-1.2,1.6-2.1,2.7-2.8c1.1-0.7,2.4-1,3.8-1c1.2,0,2.4,0.3,3.4,0.8s1.8,1.2,2.4,2.1v-8.2c0-0.3,0.1-0.6,0.3-0.8
				c0.2-0.2,0.5-0.3,0.8-0.3c0.3,0,0.6,0.1,0.8,0.3c0.2,0.2,0.3,0.5,0.3,0.8V101c0,1.5-0.4,2.8-1.1,3.9c-0.7,1.2-1.6,2.1-2.8,2.7
				C1111.8,108.3,1110.5,108.7,1109.1,108.7z M1109.1,106.7c1.1,0,2-0.3,2.9-0.8c0.8-0.5,1.5-1.2,2-2.1c0.5-0.9,0.7-1.9,0.7-3
				c0-1.1-0.2-2.1-0.7-3c-0.5-0.9-1.2-1.6-2-2.1c-0.8-0.5-1.8-0.8-2.9-0.8c-1.1,0-2,0.3-2.9,0.8c-0.9,0.5-1.5,1.2-2,2.1
				c-0.5,0.9-0.8,1.9-0.8,3c0,1.1,0.3,2.1,0.8,3s1.2,1.6,2,2.1C1107.1,106.5,1108,106.7,1109.1,106.7z"/>
			<path class="st3" d="M1128.8,108.7c-1.5,0-2.8-0.3-4-1c-1.2-0.7-2.1-1.6-2.7-2.7c-0.7-1.2-1-2.5-1-4c0-1.5,0.3-2.9,0.9-4
				c0.6-1.2,1.5-2.1,2.6-2.7s2.4-1,3.8-1c1.4,0,2.6,0.3,3.7,1c1.1,0.6,1.9,1.5,2.4,2.7c0.6,1.1,0.9,2.4,0.9,3.9
				c0,0.3-0.1,0.5-0.3,0.7c-0.2,0.2-0.4,0.3-0.7,0.3h-11.9v-1.8h12.1l-1.2,0.9c0-1.1-0.2-2-0.6-2.9c-0.4-0.9-1-1.5-1.7-2
				c-0.8-0.5-1.7-0.7-2.7-0.7c-1.1,0-2,0.3-2.8,0.8c-0.8,0.5-1.4,1.2-1.9,2.1c-0.4,0.9-0.7,1.9-0.7,3c0,1.1,0.2,2.1,0.7,3
				c0.5,0.9,1.2,1.6,2,2.1c0.9,0.5,1.8,0.8,3,0.8c0.7,0,1.3-0.1,2-0.3s1.2-0.5,1.6-0.9c0.2-0.2,0.4-0.3,0.7-0.3
				c0.3,0,0.5,0.1,0.7,0.2c0.2,0.2,0.4,0.5,0.4,0.7c0,0.3-0.1,0.5-0.3,0.7c-0.6,0.5-1.4,1-2.3,1.3
				C1130.6,108.5,1129.6,108.7,1128.8,108.7z"/>
			<path class="st3" d="M1148.5,108.5c-0.3,0-0.6-0.1-0.8-0.3c-0.2-0.2-0.3-0.5-0.3-0.8V87.8c0-0.3,0.1-0.6,0.3-0.8
				c0.2-0.2,0.5-0.3,0.8-0.3h5.6c1.4,0,2.6,0.3,3.7,0.9c1.1,0.6,1.9,1.4,2.5,2.5c0.6,1.1,0.9,2.3,0.9,3.7c0,1.4-0.3,2.6-0.9,3.6
				c-0.6,1.1-1.4,1.9-2.5,2.5c-1.1,0.6-2.3,0.9-3.7,0.9h-4.5v6.6c0,0.3-0.1,0.6-0.3,0.8C1149.1,108.4,1148.8,108.5,1148.5,108.5z
				 M1149.6,98.8h4.5c0.9,0,1.8-0.2,2.5-0.6c0.7-0.4,1.3-1,1.7-1.7c0.4-0.7,0.6-1.6,0.6-2.5c0-1-0.2-1.9-0.6-2.6
				c-0.4-0.7-1-1.3-1.7-1.8c-0.7-0.4-1.6-0.6-2.5-0.6h-4.5V98.8z"/>
			<path class="st3" d="M1165.3,108.5c-0.3,0-0.6-0.1-0.8-0.3c-0.2-0.2-0.3-0.4-0.3-0.8V94.3c0-0.3,0.1-0.6,0.3-0.8
				c0.2-0.2,0.4-0.3,0.8-0.3c0.3,0,0.6,0.1,0.8,0.3c0.2,0.2,0.3,0.4,0.3,0.8v13.1c0,0.3-0.1,0.6-0.3,0.8
				C1165.9,108.4,1165.6,108.5,1165.3,108.5z M1165.1,99.1c0.1-1.2,0.4-2.2,0.9-3.1c0.5-0.9,1.3-1.6,2.1-2.1
				c0.9-0.5,1.9-0.8,2.9-0.8c0.9,0,1.5,0.1,2,0.4c0.5,0.2,0.6,0.6,0.5,1.1c-0.1,0.3-0.2,0.5-0.4,0.6c-0.2,0.1-0.4,0.1-0.6,0.1
				s-0.5,0-0.9-0.1c-1-0.1-2,0-2.8,0.3c-0.8,0.3-1.5,0.8-1.9,1.4c-0.5,0.6-0.7,1.4-0.7,2.3H1165.1z"/>
			<path class="st3" d="M1183.9,108.7c-1.5,0-2.8-0.3-4-1c-1.2-0.7-2.1-1.6-2.8-2.8c-0.7-1.2-1-2.5-1-4c0-1.5,0.3-2.8,1-4
				c0.7-1.2,1.6-2.1,2.8-2.8c1.2-0.7,2.5-1,4-1s2.8,0.3,4,1c1.2,0.7,2.1,1.6,2.7,2.8c0.7,1.2,1,2.5,1,4c0,1.5-0.3,2.8-1,4
				s-1.6,2.1-2.8,2.8C1186.7,108.3,1185.4,108.7,1183.9,108.7z M1183.9,106.7c1.1,0,2-0.3,2.9-0.8s1.5-1.2,2-2.1s0.7-1.9,0.7-3
				c0-1.1-0.2-2.1-0.7-3c-0.5-0.9-1.2-1.6-2-2.1s-1.8-0.8-2.9-0.8s-2,0.3-2.9,0.8s-1.5,1.2-2,2.1c-0.5,0.9-0.7,1.9-0.7,3
				c0,1.1,0.2,2.1,0.7,3c0.5,0.9,1.2,1.6,2,2.1S1182.9,106.7,1183.9,106.7z"/>
			<path class="st3" d="M1191.8,115.1c-0.3,0-0.6-0.1-0.8-0.3c-0.2-0.2-0.3-0.5-0.3-0.8c0-0.3,0.1-0.6,0.3-0.8
				c0.2-0.2,0.5-0.3,0.8-0.3c0.9,0,1.6-0.2,2.3-0.6c0.7-0.4,1.2-0.9,1.5-1.5s0.6-1.4,0.6-2.3V94.4c0-0.3,0.1-0.6,0.3-0.8
				s0.5-0.3,0.8-0.3s0.6,0.1,0.8,0.3c0.2,0.2,0.3,0.5,0.3,0.8v14.2c0,1.3-0.3,2.4-0.8,3.4c-0.6,1-1.3,1.8-2.3,2.3
				C1194.2,114.8,1193.1,115.1,1191.8,115.1z M1197.2,90.4c-0.4,0-0.8-0.1-1.1-0.4c-0.3-0.3-0.4-0.7-0.4-1.1c0-0.5,0.2-0.8,0.5-1.1
				c0.3-0.3,0.7-0.4,1.1-0.4c0.4,0,0.7,0.1,1,0.4c0.3,0.3,0.5,0.6,0.5,1.1c0,0.4-0.1,0.8-0.4,1.1C1198,90.2,1197.7,90.4,1197.2,90.4
				z"/>
			<path class="st3" d="M1210.7,108.7c-1.5,0-2.8-0.3-4-1c-1.2-0.7-2.1-1.6-2.7-2.7c-0.7-1.2-1-2.5-1-4c0-1.5,0.3-2.9,0.9-4
				c0.6-1.2,1.5-2.1,2.6-2.7s2.4-1,3.8-1c1.4,0,2.6,0.3,3.7,1c1.1,0.6,1.9,1.5,2.4,2.7c0.6,1.1,0.9,2.4,0.9,3.9
				c0,0.3-0.1,0.5-0.3,0.7c-0.2,0.2-0.4,0.3-0.7,0.3h-11.9v-1.8h12.1l-1.2,0.9c0-1.1-0.2-2-0.6-2.9c-0.4-0.9-1-1.5-1.7-2
				c-0.8-0.5-1.7-0.7-2.7-0.7c-1.1,0-2,0.3-2.8,0.8c-0.8,0.5-1.4,1.2-1.9,2.1c-0.4,0.9-0.7,1.9-0.7,3c0,1.1,0.2,2.1,0.7,3
				c0.5,0.9,1.2,1.6,2,2.1c0.9,0.5,1.8,0.8,3,0.8c0.7,0,1.3-0.1,2-0.3s1.2-0.5,1.6-0.9c0.2-0.2,0.4-0.3,0.7-0.3
				c0.3,0,0.5,0.1,0.7,0.2c0.2,0.2,0.4,0.5,0.4,0.7c0,0.3-0.1,0.5-0.3,0.7c-0.6,0.5-1.4,1-2.3,1.3
				C1212.5,108.5,1211.6,108.7,1210.7,108.7z"/>
			<path class="st3" d="M1227.7,108.7c-1.5,0-2.8-0.3-3.9-1s-2-1.6-2.7-2.8c-0.7-1.2-1-2.5-1-4c0-1.5,0.3-2.8,0.9-4s1.5-2.1,2.6-2.8
				c1.1-0.7,2.4-1,3.8-1c1.1,0,2.2,0.2,3.1,0.7c1,0.4,1.8,1.1,2.5,2c0.2,0.2,0.3,0.5,0.2,0.7c-0.1,0.3-0.2,0.5-0.5,0.7
				c-0.2,0.1-0.4,0.2-0.7,0.2s-0.5-0.2-0.7-0.4c-1.1-1.2-2.4-1.8-4.1-1.8c-1,0-2,0.3-2.7,0.8c-0.8,0.5-1.4,1.2-1.8,2.1
				c-0.4,0.9-0.7,1.9-0.7,3c0,1.1,0.2,2.1,0.7,3s1.1,1.6,2,2.1s1.8,0.8,2.9,0.8c0.7,0,1.4-0.1,2-0.3s1.1-0.5,1.6-0.9
				c0.2-0.2,0.5-0.3,0.7-0.3c0.2,0,0.5,0.1,0.7,0.2c0.2,0.2,0.3,0.4,0.4,0.7c0,0.3-0.1,0.5-0.3,0.7
				C1231.5,108.1,1229.8,108.7,1227.7,108.7z"/>
			<path class="st3" d="M1236.6,95.7c-0.3,0-0.5-0.1-0.7-0.3c-0.2-0.2-0.3-0.4-0.3-0.7c0-0.3,0.1-0.5,0.3-0.7
				c0.2-0.2,0.4-0.3,0.7-0.3h7.1c0.3,0,0.5,0.1,0.7,0.3c0.2,0.2,0.3,0.4,0.3,0.7c0,0.3-0.1,0.5-0.3,0.7c-0.2,0.2-0.4,0.3-0.7,0.3
				H1236.6z M1243.5,108.5c-1,0-1.9-0.2-2.6-0.7c-0.8-0.5-1.4-1.1-1.8-1.9c-0.4-0.8-0.7-1.7-0.7-2.8V89.5c0-0.3,0.1-0.6,0.3-0.8
				s0.5-0.3,0.8-0.3s0.6,0.1,0.8,0.3c0.2,0.2,0.3,0.5,0.3,0.8v13.6c0,0.9,0.3,1.7,0.8,2.3c0.6,0.6,1.3,0.9,2.1,0.9h0.8
				c0.3,0,0.5,0.1,0.7,0.3c0.2,0.2,0.3,0.5,0.3,0.8c0,0.3-0.1,0.6-0.3,0.8c-0.2,0.2-0.5,0.3-0.8,0.3H1243.5z"/>
			<path class="st3" d="M1260.2,115.1c-0.2,0-0.4-0.1-0.6-0.2c-0.2-0.1-0.3-0.3-0.4-0.6c-1.1-2.2-1.9-4.5-2.5-6.7
				c-0.5-2.2-0.8-4.5-0.8-6.7c0-2.2,0.3-4.5,0.8-6.7c0.5-2.2,1.4-4.5,2.5-6.7c0.2-0.5,0.6-0.7,1-0.7c0.3,0,0.5,0.1,0.8,0.3
				c0.2,0.2,0.3,0.5,0.3,0.8c0,0.2-0.1,0.4-0.2,0.6c-2,4.1-3.1,8.3-3.1,12.5c0,2.1,0.3,4.2,0.8,6.3c0.5,2.1,1.3,4.2,2.3,6.2
				c0.1,0.2,0.2,0.4,0.2,0.6c0,0.3-0.1,0.5-0.3,0.8C1260.8,115,1260.5,115.1,1260.2,115.1z"/>
			<path class="st3" d="M1269.4,108.7c-1.1,0-2.2-0.2-3.3-0.6c-1.1-0.4-2-0.9-2.6-1.7c-0.2-0.2-0.3-0.5-0.3-0.8s0.2-0.5,0.4-0.7
				c0.3-0.2,0.5-0.3,0.8-0.2c0.3,0,0.5,0.2,0.7,0.4c0.4,0.5,1,0.9,1.8,1.2s1.5,0.4,2.4,0.4c1.4,0,2.4-0.2,3-0.7
				c0.6-0.5,0.9-1,0.9-1.7c0-0.7-0.3-1.2-0.9-1.7c-0.6-0.4-1.7-0.8-3.1-1c-1.9-0.3-3.3-0.8-4.1-1.6s-1.3-1.6-1.3-2.6
				c0-0.9,0.3-1.7,0.8-2.4c0.5-0.6,1.2-1.1,2-1.4c0.8-0.3,1.8-0.5,2.8-0.5c1.2,0,2.3,0.2,3.2,0.6c0.9,0.4,1.6,1,2.2,1.7
				c0.2,0.2,0.3,0.5,0.2,0.8c0,0.3-0.2,0.5-0.4,0.6c-0.2,0.1-0.5,0.2-0.8,0.1s-0.5-0.2-0.7-0.4c-0.5-0.5-1-0.9-1.6-1.2
				s-1.3-0.4-2.1-0.4c-1,0-1.8,0.2-2.5,0.6c-0.6,0.4-0.9,0.9-0.9,1.6c0,0.4,0.1,0.8,0.3,1.1c0.2,0.3,0.6,0.6,1.2,0.8
				c0.6,0.2,1.4,0.4,2.4,0.6c1.4,0.2,2.5,0.6,3.3,1c0.8,0.4,1.4,0.9,1.7,1.5c0.3,0.6,0.5,1.2,0.5,1.9c0,0.9-0.3,1.6-0.8,2.3
				c-0.5,0.7-1.2,1.2-2.1,1.5C1271.6,108.5,1270.6,108.7,1269.4,108.7z"/>
			<path class="st3" d="M1286.1,108.7c-1.5,0-2.8-0.3-4-1c-1.2-0.7-2.1-1.6-2.8-2.8c-0.7-1.2-1-2.5-1-4c0-1.5,0.3-2.8,1-4
				c0.7-1.2,1.6-2.1,2.8-2.8c1.2-0.7,2.5-1,4-1s2.8,0.3,4,1c1.2,0.7,2.1,1.6,2.7,2.8c0.7,1.2,1,2.5,1,4c0,1.5-0.3,2.8-1,4
				s-1.6,2.1-2.8,2.8C1288.9,108.3,1287.5,108.7,1286.1,108.7z M1286.1,106.7c1.1,0,2-0.3,2.9-0.8s1.5-1.2,2-2.1s0.7-1.9,0.7-3
				c0-1.1-0.2-2.1-0.7-3c-0.5-0.9-1.2-1.6-2-2.1s-1.8-0.8-2.9-0.8s-2,0.3-2.9,0.8s-1.5,1.2-2,2.1c-0.5,0.9-0.7,1.9-0.7,3
				c0,1.1,0.2,2.1,0.7,3c0.5,0.9,1.2,1.6,2,2.1S1285,106.7,1286.1,106.7z"/>
			<path class="st3" d="M1304.9,108.7c-1.5,0-2.8-0.3-4-1c-1.2-0.7-2.1-1.6-2.8-2.8c-0.7-1.2-1-2.5-1-4c0-1.5,0.3-2.8,1-4
				c0.7-1.2,1.6-2.1,2.8-2.8c1.2-0.7,2.5-1,4-1s2.8,0.3,4,1c1.2,0.7,2.1,1.6,2.7,2.8c0.7,1.2,1,2.5,1,4c0,1.5-0.3,2.8-1,4
				s-1.6,2.1-2.8,2.8C1307.8,108.3,1306.4,108.7,1304.9,108.7z M1304.9,106.7c1.1,0,2-0.3,2.9-0.8s1.5-1.2,2-2.1s0.7-1.9,0.7-3
				c0-1.1-0.2-2.1-0.7-3c-0.5-0.9-1.2-1.6-2-2.1s-1.8-0.8-2.9-0.8s-2,0.3-2.9,0.8s-1.5,1.2-2,2.1c-0.5,0.9-0.7,1.9-0.7,3
				c0,1.1,0.2,2.1,0.7,3c0.5,0.9,1.2,1.6,2,2.1S1303.9,106.7,1304.9,106.7z"/>
			<path class="st3" d="M1318,108.5c-0.3,0-0.6-0.1-0.8-0.3s-0.3-0.5-0.3-0.8V94.4c0-0.3,0.1-0.6,0.3-0.8s0.5-0.3,0.8-0.3
				c0.3,0,0.6,0.1,0.8,0.3s0.3,0.5,0.3,0.8v13.1c0,0.3-0.1,0.6-0.3,0.8S1318.3,108.5,1318,108.5z M1330,108.5
				c-0.3,0-0.6-0.1-0.8-0.3c-0.2-0.2-0.3-0.5-0.3-0.8v-7.3c0-1.2-0.2-2.1-0.7-2.8c-0.4-0.7-1-1.3-1.8-1.7s-1.6-0.6-2.6-0.6
				c-0.9,0-1.7,0.2-2.5,0.5s-1.3,0.8-1.7,1.5c-0.4,0.6-0.6,1.3-0.6,2.1h-1.5c0-1.2,0.4-2.2,0.9-3.1c0.6-0.9,1.4-1.6,2.4-2.2
				c1-0.5,2.1-0.8,3.3-0.8c1.3,0,2.5,0.3,3.5,0.8c1,0.5,1.9,1.4,2.5,2.4c0.6,1.1,0.9,2.4,0.9,3.9v7.3c0,0.3-0.1,0.5-0.3,0.8
				C1330.5,108.4,1330.3,108.5,1330,108.5z"/>
			<path class="st3" d="M1334.3,88c-0.2,0-0.4-0.1-0.5-0.2s-0.2-0.3-0.2-0.5s0.1-0.3,0.2-0.5c0.1-0.1,0.3-0.2,0.5-0.2h6.7
				c0.2,0,0.4,0.1,0.5,0.2c0.1,0.1,0.2,0.3,0.2,0.5s-0.1,0.3-0.2,0.5c-0.1,0.1-0.3,0.2-0.5,0.2H1334.3z M1337.7,95.6
				c-0.2,0-0.4-0.1-0.6-0.2c-0.1-0.1-0.2-0.3-0.2-0.5v-8.3h1.6v8.3c0,0.2-0.1,0.4-0.2,0.5C1338.1,95.5,1337.9,95.6,1337.7,95.6z
				 M1343.8,95.6c-0.2,0-0.4-0.1-0.6-0.2c-0.1-0.1-0.2-0.3-0.2-0.5v-7.6c0-0.2,0.1-0.4,0.3-0.6c0.2-0.1,0.4-0.2,0.7-0.2
				s0.4,0.2,0.6,0.4l3.9,6.8h-0.8l3.8-6.8c0.1-0.2,0.3-0.3,0.6-0.4c0.3,0,0.5,0,0.7,0.1c0.2,0.1,0.3,0.3,0.3,0.5v7.6
				c0,0.2-0.1,0.4-0.2,0.5c-0.2,0.1-0.3,0.2-0.5,0.2c-0.2,0-0.4-0.1-0.6-0.2c-0.1-0.1-0.2-0.3-0.2-0.5v-6.2l0.5,0l-3.3,5.9
				c-0.1,0.3-0.4,0.4-0.7,0.4s-0.5-0.2-0.7-0.4l-3.3-5.8l0.5-0.1v6.1c0,0.2-0.1,0.4-0.2,0.5C1344.2,95.5,1344,95.6,1343.8,95.6z"/>
			<path class="st3" d="M1355.8,115.1c-0.3,0-0.5-0.1-0.8-0.3c-0.2-0.2-0.3-0.5-0.3-0.8c0-0.2,0-0.4,0.1-0.6c1-2.1,1.8-4.1,2.3-6.2
				c0.5-2.1,0.8-4.2,0.8-6.3c0-4.2-1-8.3-3.1-12.5c-0.1-0.2-0.1-0.4-0.2-0.6c0-0.3,0.1-0.5,0.3-0.8c0.2-0.2,0.5-0.3,0.7-0.3
				c0.5,0,0.8,0.2,1.1,0.7c1.1,2.2,1.9,4.5,2.5,6.7c0.5,2.2,0.8,4.5,0.8,6.7c0,2.2-0.3,4.5-0.8,6.7c-0.5,2.2-1.4,4.5-2.4,6.7
				c-0.1,0.3-0.3,0.4-0.5,0.6C1356.2,115,1356,115.1,1355.8,115.1z"/>
		</g>
	</g>
</g>
<g>
	<rect x="-401" y="125.9" class="st4" width="300" height="300"/>
</g>
</svg>
